<?xml version="1.0" encoding="utf-8"?>
<!-- Generator: Adobe Illustrator 16.0.0, SVG Export Plug-In . SVG Version: 6.00 Build 0)  -->
<!DOCTYPE svg PUBLIC "-//W3C//DTD SVG 1.1//EN" "http://www.w3.org/Graphics/SVG/1.1/DTD/svg11.dtd">
<svg version="1.1" id="Layer_1" xmlns="http://www.w3.org/2000/svg" xmlns:xlink="http://www.w3.org/1999/xlink" x="0px" y="0px"
	 width="156.972px" height="156.798px" viewBox="0 0 156.972 156.798" enable-background="new 0 0 156.972 156.798"
	 xml:space="preserve">
<g>
	<defs>
		<rect id="SVGID_1_" width="156.972" height="156.798"/>
	</defs>
	<clipPath id="SVGID_2_">
		<use xlink:href="#SVGID_1_"  overflow="visible"/>
	</clipPath>
	<path clip-path="url(#SVGID_2_)" fill="none" stroke="#180600" stroke-width="2" stroke-miterlimit="10" d="M1,59.029v85.5
		c0,0,0.25,11.75,12.75,11.25S146,155.795,146,155.795s9.25,0.484,9.75-10.766s0-86,0-86l-18.417-17.25l0.104-22.25
		c0,0-0.062-5-4.562-5.438c-4.5-0.437-110.042,0-110.042,0S16,13.362,16.667,25.196c0.666,11.833,0.5,18.5,0.5,18.5L1,56.029V59.029
		z"/>
	<path clip-path="url(#SVGID_2_)" fill="none" stroke="#180600" stroke-width="2" stroke-miterlimit="10" d="M155.75,59.029
		l-66.917,29.5c0,0-8.166-11.5-19.666,0L1,56.029"/>
	
		<line clip-path="url(#SVGID_2_)" fill="none" stroke="#180600" stroke-width="2" stroke-miterlimit="10" x1="137.334" y1="41.779" x2="137.334" y2="67.148"/>
	
		<line clip-path="url(#SVGID_2_)" fill="none" stroke="#180600" stroke-width="2" stroke-miterlimit="10" x1="17.167" y1="43.696" x2="17.167" y2="63.738"/>
	
		<line clip-path="url(#SVGID_2_)" fill="none" stroke="#180600" stroke-width="2" stroke-miterlimit="10" x1="69.167" y1="88.529" x2="4.223" y2="152.439"/>
	
		<line clip-path="url(#SVGID_2_)" fill="none" stroke="#180600" stroke-width="2" stroke-miterlimit="10" x1="88.834" y1="88.529" x2="153.325" y2="152.439"/>
	
		<line clip-path="url(#SVGID_2_)" fill="none" stroke="#F99F00" stroke-width="2" stroke-miterlimit="10" x1="34.607" y1="24.578" x2="109.364" y2="24.578"/>
	
		<line clip-path="url(#SVGID_2_)" fill="none" stroke="#F99F00" stroke-width="2" stroke-miterlimit="10" x1="34.607" y1="39.494" x2="88.834" y2="39.494"/>
	
		<line clip-path="url(#SVGID_2_)" fill="none" stroke="#F99F00" stroke-width="2" stroke-miterlimit="10" x1="34.607" y1="53.464" x2="119.396" y2="53.464"/>
	
		<line clip-path="url(#SVGID_2_)" fill="none" stroke="#F99F00" stroke-width="2" stroke-miterlimit="10" x1="34.607" y1="68.562" x2="109.364" y2="68.562"/>
	<path clip-path="url(#SVGID_2_)" fill="none" stroke="#180600" stroke-width="2" stroke-miterlimit="10" d="M57.5,13.897
		c0,0,10.5-12.118,20.875-12.868S100,13.897,100,13.897"/>
</g>
</svg>
