<?xml version="1.0" encoding="utf-8"?>
<!-- Generator: Adobe Illustrator 16.0.0, SVG Export Plug-In . SVG Version: 6.00 Build 0)  -->
<!DOCTYPE svg PUBLIC "-//W3C//DTD SVG 1.1//EN" "http://www.w3.org/Graphics/SVG/1.1/DTD/svg11.dtd">
<svg version="1.1" id="Layer_1" xmlns="http://www.w3.org/2000/svg" xmlns:xlink="http://www.w3.org/1999/xlink" x="0px" y="0px"
	 width="228px" height="228px" viewBox="0 0 228 228" enable-background="new 0 0 228 228" xml:space="preserve">
<g>
	<defs>
		<rect id="SVGID_1_" width="228" height="228"/>
	</defs>
	<clipPath id="SVGID_2_">
		<use xlink:href="#SVGID_1_"  overflow="visible"/>
	</clipPath>
	<path clip-path="url(#SVGID_2_)" fill="none" stroke="#000000" stroke-width="3" stroke-miterlimit="10" d="M105.5,1.5h17
		c3.899,2.142,5.522,5.304,5.034,9.835c-0.354,3.289-0.247,6.666,0.055,9.967c0.106,1.155,1.211,2.898,2.199,3.179
		c5.706,1.625,11.513,2.893,17.687,4.377c2.35-4.066,4.663-8.264,7.164-12.347c2.654-4.331,5.656-5.106,10.093-2.703
		c3.504,1.899,6.95,3.905,10.393,5.916c4.776,2.792,5.614,5.824,3.027,10.824c-1.603,3.097-3.133,6.238-4.898,9.24
		c-1.288,2.192-1.293,3.688,0.829,5.519c3.26,2.814,6.278,5.946,9.121,9.188c1.736,1.979,3.165,2.47,5.45,0.952
		c3.179-2.111,6.471-4.071,9.829-5.884c4.103-2.216,7.333-1.318,9.766,2.617c1.571,2.54,2.928,5.213,4.411,7.809
		c4.979,8.713,4.551,10.349-4.044,15.256c-9.171,5.235-9.171,5.235-6.552,15.436c2.523,9.83,2.526,9.976,12.651,9.791
		c4.825-0.088,9.311-0.077,11.785,5.028v18c-2.799,3.781-6.52,5.223-11.199,4.806c-2.976-0.266-6.051-0.387-8.971,0.098
		c-1.449,0.239-3.363,1.743-3.826,3.099c-1.445,4.224-2.518,8.614-3.254,13.021c-0.24,1.44,0.53,3.758,1.646,4.581
		c3.056,2.261,6.588,3.864,9.846,5.869c4.149,2.555,5,5.769,2.678,10.156c-1.868,3.529-3.828,7.015-5.902,10.426
		c-2.974,4.894-5.858,5.635-10.817,2.832c-4.012-2.269-7.952-4.664-11.976-7.034c-1.413,1.524-2.521,2.749-3.659,3.943
		c-3.297,3.458-8.823,6.633-9.287,10.431c-0.471,3.848,4.011,8.335,6.415,12.489c2.276,3.933,1.309,7.088-2.334,9.376
		c-4.081,2.562-8.241,5.032-12.539,7.202c-3.861,1.949-9.079-0.407-8.755-4.175c0.793-9.196-2.544-18.953,3.575-27.532
		c1.079-1.512,1.034-3.802,1.605-5.703c1.944-6.467,3.575-13.059,6.006-19.34c2.333-6.027,5.633-11.673,8.3-17.58
		c5.795-12.835,8.736-26.228,6.381-40.301c-6.657-39.797-44.483-64.386-83.775-54.62c-30.73,7.639-52.533,38.712-49.543,70.267
		c1.189,12.54,5.862,23.848,11.647,34.74c7.906,14.886,11.77,30.938,14.377,47.374c0.512,3.227,0.322,6.643-0.072,9.907
		c-0.271,2.243-0.857,5.417-2.382,6.293c-1.861,1.067-5.11,0.817-7.299-0.038c-3.68-1.438-7.01-3.784-10.466-5.784
		c-4.764-2.757-5.668-5.884-3.082-10.818c2.22-4.238,4.517-8.437,6.821-12.729c-1.466-1.365-2.687-2.474-3.877-3.616
		c-3.45-3.314-6.603-8.856-10.41-9.347c-3.838-0.494-8.357,3.961-12.511,6.362c-3.904,2.258-7.048,1.42-9.406-2.226
		c-1.803-2.787-3.338-5.749-4.972-8.645c-4.722-8.373-4.253-10.007,4.198-14.751c8.925-5.011,8.925-5.011,6.279-15.116
		c-2.594-9.907-2.597-10.066-13.105-9.88C8.116,127.62,3.862,127.406,1.5,122.5v-17c2.143-3.916,5.342-5.509,9.855-5.028
		c3.128,0.333,6.373,0.386,9.462-0.092c1.433-0.222,3.32-1.769,3.793-3.134c1.459-4.212,2.025-8.74,3.55-12.922
		c1.051-2.885,0.286-4.247-2.138-5.533c-3.374-1.791-6.699-3.688-9.946-5.7c-3.718-2.302-4.539-5.554-2.465-9.398
		c1.973-3.658,4.027-7.276,6.139-10.856c2.814-4.773,5.797-5.586,10.834-2.968c4.237,2.202,8.426,4.498,12.65,6.76
		c2.099-2.229,3.872-4.2,5.742-6.075c1.998-2.002,4.376-3.701,6.016-5.95c0.862-1.18,1.158-3.552,0.563-4.865
		c-1.571-3.462-3.754-6.648-5.72-9.927c-2.324-3.877-1.384-7.039,2.256-9.375c2.932-1.883,6.037-3.497,9.073-5.216
		c7.712-4.367,9.755-3.78,14.096,4.035c5.187,9.338,5.187,9.338,15.348,6.698c9.926-2.579,10.091-2.583,9.853-13.107
		C100.354,8.091,100.621,3.871,105.5,1.5z"/>
	<path clip-path="url(#SVGID_2_)" fill="none" stroke="#F68946" stroke-width="3" stroke-miterlimit="10" d="M111.5,226.5
		c-5.548-3.588-11.15-6.599-18.263-5.651c-1.569,0.209-4.504-2-4.997-3.641c-0.549-1.825,0.974-4.274,1.859-7.378
		c-2.599-2.424-4.277-6.022,0.082-8.712c-0.73-3.152-2.48-6.272-1.579-8.045c0.935-1.84,4.413-3.268,6.819-3.33
		c12.463-0.321,24.944-0.329,37.406,0.012c2.366,0.064,5.679,1.652,6.701,3.541c0.858,1.585-0.983,4.633-1.813,7.713
		c3.676,3.986,3.683,4.78,0.058,8.803c0.795,3.085,2.604,6.157,1.727,7.734c-1.033,1.856-4.558,3.612-6.716,3.318
		c-6.606-0.9-11.167,2.928-16.284,5.636H111.5z"/>
	<path clip-path="url(#SVGID_2_)" fill="none" stroke="#F68946" stroke-width="3" stroke-miterlimit="10" d="M113.618,183.838
		c-6.798,0-13.596-0.008-20.394,0.003c-5.29,0.008-9.966-3.111-10.187-8.256c-0.512-11.982-6.588-21.792-11.434-32.1
		c-4.958-10.55-9.843-21.067-9.886-33.082c-0.093-26.248,20.735-49.252,45.937-51.838c30.975-3.18,54.056,18.84,57.913,43.188
		c1.971,12.439-1.093,23.645-6.033,34.75c-4.642,10.433-9.103,20.95-13.44,31.514c-0.787,1.915-0.608,4.231-0.847,6.366
		c-0.648,5.813-4.919,9.617-10.743,9.601c-6.962-0.021-13.924-0.005-20.885-0.005V183.838z"/>
	
		<line clip-path="url(#SVGID_2_)" fill="none" stroke="#F68946" stroke-width="3" stroke-miterlimit="10" x1="114" y1="144" x2="114" y2="183"/>
	
		<line clip-path="url(#SVGID_2_)" fill="none" stroke="#F68946" stroke-width="3" stroke-miterlimit="10" x1="98" y1="128" x2="128" y2="128"/>
	
		<line clip-path="url(#SVGID_2_)" fill="none" stroke="#F68946" stroke-width="3" stroke-miterlimit="10" x1="98" y1="113" x2="128" y2="113"/>
</g>
</svg>
