<?xml version="1.0" encoding="utf-8"?>
<!-- Generator: Adobe Illustrator 16.0.0, SVG Export Plug-In . SVG Version: 6.00 Build 0)  -->
<!DOCTYPE svg PUBLIC "-//W3C//DTD SVG 1.1//EN" "http://www.w3.org/Graphics/SVG/1.1/DTD/svg11.dtd">
<svg version="1.1" id="Layer_1" xmlns="http://www.w3.org/2000/svg" xmlns:xlink="http://www.w3.org/1999/xlink" x="0px" y="0px"
	 width="157.178px" height="187.501px" viewBox="0 0 157.178 187.501" enable-background="new 0 0 157.178 187.501"
	 xml:space="preserve">
<g>
	<defs>
		<rect id="SVGID_1_" width="157.178" height="187.501"/>
	</defs>
	<clipPath id="SVGID_2_">
		<use xlink:href="#SVGID_1_"  overflow="visible"/>
	</clipPath>
	<path clip-path="url(#SVGID_2_)" fill="none" stroke="#180600" stroke-width="2" stroke-miterlimit="10" d="M103.233,1.001h-88.5
		c0,0-14.5-0.5-13.5,18.5s-0.049,153.5-0.049,153.5s-3.451,13.5,19.549,13.5h122c0,0,12-0.5,13-15.5s0-117.5,0-117.5L103.233,1.001z
		"/>
	<path clip-path="url(#SVGID_2_)" fill="none" stroke="#180600" stroke-width="2" stroke-miterlimit="10" d="M103.233,1.001v41.5
		c0,0,2.333,10,14,10.333c11.667,0.334,38.5,0,38.5,0"/>
	
		<line clip-path="url(#SVGID_2_)" fill="none" stroke="#000000" stroke-width="5" stroke-miterlimit="10" x1="132.233" y1="111.835" x2="43.566" y2="111.835"/>
	
		<line clip-path="url(#SVGID_2_)" fill="none" stroke="#000000" stroke-width="5" stroke-miterlimit="10" x1="132.233" y1="134.835" x2="43.566" y2="134.835"/>
	
		<line clip-path="url(#SVGID_2_)" fill="none" stroke="#000000" stroke-width="5" stroke-miterlimit="10" x1="132.233" y1="157.835" x2="43.566" y2="157.835"/>
	<rect x="21.234" y="104.501" clip-path="url(#SVGID_2_)" fill="#EA4ACA" width="14.333" height="14.333"/>
	<rect x="21.234" y="127.668" clip-path="url(#SVGID_2_)" fill="#FFDB21" width="14.333" height="14.333"/>
	<rect x="21.234" y="150.835" clip-path="url(#SVGID_2_)" fill="#F99F00" width="14.333" height="14.333"/>
	<path clip-path="url(#SVGID_2_)" fill="#EA4ACA" d="M51.233,82.982c-16.568,0-30-13.432-30-30s13.432-30,30-30"/>
	<path clip-path="url(#SVGID_2_)" fill="#FFDB21" d="M83.483,50.982c-0.87-15.125-13.407-27.123-28.75-27.123v27.123H83.483z"/>
	<path clip-path="url(#SVGID_2_)" fill="#F99F00" d="M81.385,54.538c-0.913,15.862-14.061,28.445-30.151,28.445V54.538H81.385z"/>
</g>
</svg>
