<?xml version="1.0" encoding="utf-8"?>
<!-- Generator: Adobe Illustrator 16.0.0, SVG Export Plug-In . SVG Version: 6.00 Build 0)  -->
<!DOCTYPE svg PUBLIC "-//W3C//DTD SVG 1.1//EN" "http://www.w3.org/Graphics/SVG/1.1/DTD/svg11.dtd">
<svg version="1.1" id="Layer_1" xmlns="http://www.w3.org/2000/svg" xmlns:xlink="http://www.w3.org/1999/xlink" x="0px" y="0px"
	 width="228px" height="181.135px" viewBox="0 0 228 181.135" enable-background="new 0 0 228 181.135" xml:space="preserve">
<g>
	<defs>
		<rect id="SVGID_1_" width="228" height="181.135"/>
	</defs>
	<clipPath id="SVGID_2_">
		<use xlink:href="#SVGID_1_"  overflow="visible"/>
	</clipPath>
	<path clip-path="url(#SVGID_2_)" fill="none" stroke="#000000" stroke-width="3" stroke-miterlimit="10" d="M1.5,93.269v-7
		c2.27-3.338,5.176-5.31,9.464-5.202c2.108,0.053,4.25-0.674,6.353-1.149c4.378-0.989,7.506-2.933,9.296-7.692
		c1.713-4.554,4.634-8.881,7.859-12.582c4.177-4.792,9.18-8.863,13.935-13.345c-5.718-7.375-10.164-15.373-11.725-25.519
		c2.361,0,4.311-0.068,6.253,0.012c13.358,0.547,25.748,4.483,37.581,10.548c3.26,1.67,6.833,2.727,10.865,4.302
		c2.369,14.808,10.848,25.977,26.73,29.265c17.251,3.571,29.931-4.119,38.417-19.475c11.858,6.45,21.791,14.64,28.389,26.177
		c2.236,3.909,4.394,4.349,7.883,2.619c1.556-0.77,3.09-1.585,4.24-2.175c-3.244-3.451-6.756-6.321-9.141-9.934
		c-3.247-4.918-1.986-10.99,2.018-13.894c4.227-3.066,10.046-2.685,13.889,1.957c3.346,4.041,5.636,8.955,8.756,14.079
		c1.454-1.1,3.804-2.374,5.478-4.251c3.118-3.494,5.748-3.395,8.461,0.259v3c-4.407,5.505-9.807,9.292-17.053,9.948
		c-0.628,0.056-1.313,0.276-1.831,0.626c-5.409,3.649-10.789,7.34-16.566,11.284c0.384,2.679,1.229,6.419,1.409,10.191
		c0.796,16.681-5.936,30.277-17.338,42.016c-1.809,1.861-3.132,4.537-3.833,7.071c-2.738,9.896-5.169,19.875-7.641,29.842
		c-0.896,3.609-3.056,5.304-6.771,5.273c-7.326-0.057-14.655,0.1-21.978-0.06c-4.849-0.105-6.794-2.82-5.706-7.523
		c0.874-3.782,1.854-7.54,2.578-10.457H84.769c-1.369,4.246-2.41,9.009-4.492,13.264c-1.013,2.071-3.882,4.365-6.063,4.529
		c-7.451,0.561-14.972,0.344-22.462,0.181c-4.786-0.104-6.746-2.929-5.603-7.612c1.613-6.607,3.196-13.224,4.997-19.779
		c0.82-2.983-0.052-4.58-2.438-6.652c-6.116-5.31-11.638-11.297-17.549-16.853c-1.666-1.566-3.777-3.521-5.814-3.687
		c-11.072-0.892-16.958-7.494-20.07-17.312C3.789,102.866,2.745,98.036,1.5,93.269z M201.662,63.497
		c0.419-0.415,0.839-0.829,1.259-1.244c-2.313-2.656-4.628-5.314-6.941-7.971c-0.496,0.443-0.992,0.885-1.487,1.327
		C194.9,59.976,197.788,62.167,201.662,63.497z"/>
	<path clip-path="url(#SVGID_2_)" fill="#FFFFFF" d="M201.662,63.497c-3.874-1.329-6.762-3.521-7.17-7.888
		c0.495-0.442,0.991-0.884,1.487-1.327c2.313,2.657,4.628,5.315,6.941,7.971C202.501,62.667,202.081,63.082,201.662,63.497"/>
	<path clip-path="url(#SVGID_2_)" fill="#F9A01C" d="M152.5,30.769c0,15.188-12.313,27.5-27.5,27.5c-15.188,0-27.5-12.312-27.5-27.5
		s12.312-27.5,27.5-27.5C140.188,3.269,152.5,15.581,152.5,30.769"/>
	<g clip-path="url(#SVGID_2_)">
		<text transform="matrix(1 0 0 1 113.832 43.7998)" fill="#FFFFFF" font-family="'KHNPHUotfR'" font-size="54.7494">s</text>
	</g>
</g>
</svg>
