<?xml version="1.0" encoding="utf-8"?>
<!-- Generator: Adobe Illustrator 16.0.0, SVG Export Plug-In . SVG Version: 6.00 Build 0)  -->
<!DOCTYPE svg PUBLIC "-//W3C//DTD SVG 1.1//EN" "http://www.w3.org/Graphics/SVG/1.1/DTD/svg11.dtd">
<svg version="1.1" id="Layer_1" xmlns="http://www.w3.org/2000/svg" xmlns:xlink="http://www.w3.org/1999/xlink" x="0px" y="0px"
	 width="655.808px" height="184.883px" viewBox="0 0 655.808 184.883" enable-background="new 0 0 655.808 184.883"
	 xml:space="preserve">
<line fill="none" stroke="#FFFFFF" stroke-width="3" stroke-miterlimit="10" x1="377.315" y1="106.196" x2="384.191" y2="106.196"/>
<line fill="none" stroke="#FFFFFF" stroke-width="3" stroke-miterlimit="10" x1="377.315" y1="100.303" x2="388.058" y2="100.303"/>
<line fill="none" stroke="#FFFFFF" stroke-width="3" stroke-miterlimit="10" x1="377.315" y1="94.407" x2="384.191" y2="94.407"/>
<line fill="none" stroke="#FFFFFF" stroke-width="3" stroke-miterlimit="10" x1="377.315" y1="88.513" x2="384.191" y2="88.513"/>
<line fill="none" stroke="#FFFFFF" stroke-width="3" stroke-miterlimit="10" x1="377.315" y1="82.619" x2="384.191" y2="82.619"/>
<line fill="none" stroke="#FFFFFF" stroke-width="3" stroke-miterlimit="10" x1="377.315" y1="76.723" x2="384.191" y2="76.723"/>
<line fill="none" stroke="#FFFFFF" stroke-width="3" stroke-miterlimit="10" x1="377.315" y1="70.829" x2="388.058" y2="70.829"/>
<line fill="none" stroke="#FFFFFF" stroke-width="3" stroke-miterlimit="10" x1="377.315" y1="64.936" x2="384.191" y2="64.936"/>
<line fill="none" stroke="#FFFFFF" stroke-width="3" stroke-miterlimit="10" x1="377.315" y1="59.038" x2="384.191" y2="59.038"/>
<line fill="none" stroke="#FFFFFF" stroke-width="3" stroke-miterlimit="10" x1="377.315" y1="53.142" x2="384.191" y2="53.142"/>
<line fill="none" stroke="#FFFFFF" stroke-width="3" stroke-miterlimit="10" x1="377.315" y1="47.246" x2="384.191" y2="47.246"/>
<line fill="none" stroke="#FFFFFF" stroke-width="3" stroke-miterlimit="10" x1="377.315" y1="41.35" x2="388.058" y2="41.35"/>
<g>
	<defs>
		<rect id="SVGID_1_" width="655.808" height="184.883"/>
	</defs>
	<clipPath id="SVGID_2_">
		<use xlink:href="#SVGID_1_"  overflow="visible"/>
	</clipPath>
	<path clip-path="url(#SVGID_2_)" fill="#F7F8FC" d="M305.057,74.315l-17.051,17.053c-5.799,5.796-5.799,15.195,0,20.988
		l0.437,0.439l0.005,31.819h39.884l-0.002-17.492l14.767-14.767c5.799-5.793,5.799-15.192,0-20.988l-17.05-17.053
		C320.25,68.522,310.853,68.522,305.057,74.315"/>
	<path clip-path="url(#SVGID_2_)" fill="none" stroke="#484F59" stroke-width="3" stroke-miterlimit="10" d="M305.057,74.315
		l-17.051,17.053c-5.799,5.796-5.799,15.195,0,20.988l0.437,0.439l0.005,31.819h39.884l-0.002-17.492l14.767-14.767
		c5.799-5.793,5.799-15.192,0-20.988l-17.05-17.053C320.25,68.522,310.853,68.522,305.057,74.315z"/>
	<path clip-path="url(#SVGID_2_)" fill="#FFC400" d="M359.115,84.069c1.084,2.758-0.271,5.878-3.024,6.966l-36.784,14.508
		c-2.758,1.087-5.879-0.268-6.966-3.024c-1.086-2.76,0.267-5.882,3.024-6.97l36.784-14.508
		C354.906,79.957,358.026,81.31,359.115,84.069"/>
	
		<path clip-path="url(#SVGID_2_)" fill="none" stroke="#484F59" stroke-width="3" stroke-linecap="round" stroke-linejoin="round" d="
		M359.115,84.069c1.084,2.758-0.271,5.878-3.024,6.966l-36.784,14.508c-2.758,1.087-5.879-0.268-6.966-3.024
		c-1.086-2.76,0.267-5.882,3.024-6.97l36.784-14.508C354.906,79.957,358.026,81.31,359.115,84.069z"/>
	<path clip-path="url(#SVGID_2_)" fill="#FFC400" d="M359.539,66.87c1.086,2.759-0.27,5.879-3.028,6.968l-36.785,14.506
		c-2.757,1.087-5.88-0.271-6.967-3.025c-1.086-2.759,0.269-5.881,3.024-6.968l36.784-14.505
		C355.326,62.757,358.445,64.112,359.539,66.87"/>
	
		<path clip-path="url(#SVGID_2_)" fill="none" stroke="#484F59" stroke-width="3" stroke-linecap="round" stroke-linejoin="round" d="
		M359.539,66.87c1.086,2.759-0.27,5.879-3.028,6.968l-36.785,14.506c-2.757,1.087-5.88-0.271-6.967-3.025
		c-1.086-2.759,0.269-5.881,3.024-6.968l36.784-14.505C355.326,62.757,358.445,64.112,359.539,66.87z"/>
	<path clip-path="url(#SVGID_2_)" fill="#F7F8FC" d="M363.404,36.888c1.091,2.758-0.265,5.88-3.025,6.967l-36.78,14.508
		c-2.759,1.086-5.882-0.27-6.969-3.028c-1.086-2.758,0.264-5.879,3.028-6.965l36.782-14.507
		C359.197,32.775,362.318,34.13,363.404,36.888"/>
	<path clip-path="url(#SVGID_2_)" fill="none" stroke="#484F59" stroke-width="3" stroke-miterlimit="10" d="M363.404,36.888
		c1.091,2.758-0.265,5.88-3.025,6.967l-36.78,14.508c-2.759,1.086-5.882-0.27-6.969-3.028c-1.086-2.758,0.264-5.879,3.028-6.965
		l36.782-14.507C359.197,32.775,362.318,34.13,363.404,36.888z"/>
	<path clip-path="url(#SVGID_2_)" fill="#FFFFFF" d="M352.585,104.868c0,3.753-3.066,6.823-6.82,6.823h-40.752
		c-3.753,0-6.823-3.07-6.823-6.823V8.321c0-3.754,3.07-6.821,6.823-6.821h40.752c3.754,0,6.82,3.067,6.82,6.821V104.868z"/>
	<path clip-path="url(#SVGID_2_)" fill="none" stroke="#484F59" stroke-width="3" stroke-miterlimit="10" d="M352.585,104.868
		c0,3.753-3.066,6.823-6.82,6.823h-40.752c-3.753,0-6.823-3.07-6.823-6.823V8.321c0-3.754,3.07-6.821,6.823-6.821h40.752
		c3.754,0,6.82,3.067,6.82,6.821V104.868z"/>
	<rect x="303.725" y="14.005" clip-path="url(#SVGID_2_)" fill="#88D8FB" width="43.233" height="84.744"/>
	
		<rect x="303.725" y="14.005" clip-path="url(#SVGID_2_)" fill="none" stroke="#484F59" stroke-width="3" width="43.233" height="84.744"/>
	<path clip-path="url(#SVGID_2_)" fill="#F7F8FC" d="M360.229,52.21c1.091,2.758-0.265,5.88-3.025,6.967l-3.828,1.222
		c-2.755,1.089-5.878-0.27-6.965-3.027c-1.09-2.757,0.264-5.878,3.025-6.963l3.826-1.223
		C356.019,48.098,359.14,49.452,360.229,52.21"/>
	<path clip-path="url(#SVGID_2_)" fill="none" stroke="#484F59" stroke-width="3" stroke-miterlimit="10" d="M360.229,52.21
		c1.091,2.758-0.265,5.88-3.025,6.967l-3.828,1.222c-2.755,1.089-5.878-0.27-6.965-3.027c-1.09-2.757,0.264-5.878,3.025-6.963
		l3.826-1.223C356.019,48.098,359.14,49.452,360.229,52.21z"/>
	<path clip-path="url(#SVGID_2_)" fill="#F7F8FC" d="M358.062,83.063c1.089,2.761-0.267,5.88-3.022,6.968l-3.829,1.223
		c-2.756,1.086-5.877-0.269-6.964-3.027c-1.092-2.758,0.266-5.88,3.025-6.966l3.826-1.221
		C353.854,78.952,356.976,80.306,358.062,83.063"/>
	<path clip-path="url(#SVGID_2_)" fill="none" stroke="#484F59" stroke-width="3" stroke-miterlimit="10" d="M358.062,83.063
		c1.089,2.761-0.267,5.88-3.022,6.968l-3.829,1.223c-2.756,1.086-5.877-0.269-6.964-3.027c-1.092-2.758,0.266-5.88,3.025-6.966
		l3.826-1.221C353.854,78.952,356.976,80.306,358.062,83.063z"/>
	<path clip-path="url(#SVGID_2_)" fill="#F7F8FC" d="M359.226,66.545c1.089,2.76-0.265,5.88-3.023,6.967l-3.83,1.222
		c-2.755,1.087-5.876-0.267-6.965-3.026c-1.088-2.758,0.264-5.879,3.025-6.965l3.828-1.221
		C355.016,62.435,358.139,63.787,359.226,66.545"/>
	<path clip-path="url(#SVGID_2_)" fill="none" stroke="#484F59" stroke-width="3" stroke-miterlimit="10" d="M359.226,66.545
		c1.089,2.76-0.265,5.88-3.023,6.967l-3.83,1.222c-2.755,1.087-5.876-0.267-6.965-3.026c-1.088-2.758,0.264-5.879,3.025-6.965
		l3.828-1.221C355.016,62.435,358.139,63.787,359.226,66.545z"/>
	<path clip-path="url(#SVGID_2_)" fill="#F7F8FC" d="M293.172,63.443l-0.065-0.041l-3.018,6.832l-3.425,7.542l0.09,0.003
		l-3.26,7.376l0.074,0.022v50.215h18.954c4.346-5.359,7.066-12.979,7.064-21.438c0.002-11.012-4.607-20.602-11.417-25.629
		l3.353-10.07l2.373,0.077c5.979,0.095,10.912-4.676,11.008-10.661l0.058-3.61c0.004-0.154-0.014-0.301-0.018-0.455l-21.698-0.329
		L293.172,63.443z"/>
	<path clip-path="url(#SVGID_2_)" fill="none" stroke="#484F59" stroke-width="3" stroke-miterlimit="10" d="M293.172,63.443
		l-0.065-0.041l-3.018,6.832l-3.425,7.542l0.09,0.003l-3.26,7.376l0.074,0.022v50.215h18.954c4.346-5.359,7.066-12.979,7.064-21.438
		c0.002-11.012-4.607-20.602-11.417-25.629l3.353-10.07l2.373,0.077c5.979,0.095,10.912-4.676,11.008-10.661l0.058-3.61
		c0.004-0.154-0.014-0.301-0.018-0.455l-21.698-0.329L293.172,63.443z"/>
	
		<line clip-path="url(#SVGID_2_)" fill="none" stroke="#484F59" stroke-width="3" stroke-miterlimit="10" x1="325.031" y1="104.838" x2="328.416" y2="104.838"/>
	
		<line clip-path="url(#SVGID_2_)" fill="none" stroke="#484F59" stroke-width="3" stroke-miterlimit="10" x1="322.493" y1="7.605" x2="330.955" y2="7.605"/>
	<rect x="280.777" y="135.587" clip-path="url(#SVGID_2_)" fill="#F1FAFC" width="55.265" height="28.162"/>
	
		<rect x="280.777" y="135.587" clip-path="url(#SVGID_2_)" fill="none" stroke="#484F59" stroke-width="3" stroke-linecap="round" stroke-linejoin="round" width="55.265" height="28.162"/>
	<polyline clip-path="url(#SVGID_2_)" fill="#88D8FB" points="278.695,184.883 278.695,140.844 338.128,140.844 338.128,184.883 	
		"/>
	<polyline clip-path="url(#SVGID_2_)" fill="none" stroke="#484F59" stroke-width="3" points="278.695,184.883 278.695,140.844 
		338.128,140.844 338.128,184.883 	"/>
	<rect x="307.37" y="142.601" clip-path="url(#SVGID_2_)" fill="#81CDEE" width="29.687" height="42.282"/>
	<path clip-path="url(#SVGID_2_)" fill="#F1FAFC" d="M331.753,153.95c0,1.563-1.27,2.831-2.834,2.831
		c-1.559,0-2.825-1.268-2.825-2.831c0-1.563,1.266-2.829,2.825-2.829C330.483,151.121,331.753,152.388,331.753,153.95"/>
	
		<path clip-path="url(#SVGID_2_)" fill="none" stroke="#484F59" stroke-width="3" stroke-linecap="round" stroke-linejoin="round" d="
		M331.753,153.95c0,1.563-1.27,2.831-2.834,2.831c-1.559,0-2.825-1.268-2.825-2.831c0-1.563,1.266-2.829,2.825-2.829
		C330.483,151.121,331.753,152.388,331.753,153.95z"/>
	<polygon clip-path="url(#SVGID_2_)" fill="#FEDA1D" points="361.404,2.033 361.404,11.477 371.107,11.477 341.143,40.504 
		324.469,26.21 304.538,47.314 304.538,61.069 325.156,39.236 341.533,53.274 376.751,19.156 376.751,26.821 386.191,26.821 
		386.191,2.033 	"/>
	<polygon clip-path="url(#SVGID_2_)" fill="none" stroke="#484F59" stroke-width="3" points="361.404,2.033 361.404,11.477 
		371.107,11.477 341.143,40.504 324.469,26.21 304.538,47.314 304.538,61.069 325.156,39.236 341.533,53.274 376.751,19.156 
		376.751,26.821 386.191,26.821 386.191,2.033 	"/>
	<path clip-path="url(#SVGID_2_)" fill="#F7F8FC" d="M247.879,20.636c-7.201-8.851-17.055-13.816-28.473-14.372
		c-0.705-0.031-1.414-0.054-2.131-0.057h-0.003h-0.004c-4.379,0.003-8.084,0.589-12.25,1.942c-0.112,0.038-0.217,0.082-0.328,0.114
		c0.109-0.032,0.212-0.073,0.322-0.11l3.779,11.632c2.67-0.87,5.518-1.344,8.477-1.344h0.002c9.123,0,17.201,4.458,22.189,11.312
		l9.9-7.195C248.879,21.9,248.385,21.256,247.879,20.636"/>
	
		<path clip-path="url(#SVGID_2_)" fill="none" stroke="#484F59" stroke-width="3" stroke-linecap="round" stroke-linejoin="bevel" stroke-miterlimit="10" d="
		M247.879,20.636c-7.201-8.851-17.055-13.816-28.473-14.372c-0.705-0.031-1.414-0.054-2.131-0.057h-0.003h-0.004
		c-4.379,0.003-8.084,0.589-12.25,1.942c-0.112,0.038-0.217,0.082-0.328,0.114c0.109-0.032,0.212-0.073,0.322-0.11l3.779,11.632
		c2.67-0.87,5.518-1.344,8.477-1.344h0.002c9.123,0,17.201,4.458,22.189,11.312l9.9-7.195
		C248.879,21.9,248.385,21.256,247.879,20.636z"/>
	<path clip-path="url(#SVGID_2_)" fill="#B7BEC0" d="M177.92,50.812c-0.027-0.227-0.062-0.454-0.086-0.683
		C177.858,50.355,177.889,50.584,177.92,50.812"/>
	<path clip-path="url(#SVGID_2_)" fill="#B7BEC0" d="M178.129,52.306c-0.004-0.026-0.01-0.052-0.016-0.078
		C178.119,52.253,178.125,52.279,178.129,52.306"/>
	<path clip-path="url(#SVGID_2_)" fill="#B7BEC0" d="M217.276,6.207h-0.004H217.276z"/>
	<path clip-path="url(#SVGID_2_)" fill="#B7BEC0" d="M177.758,49.27c-0.035-0.412-0.072-0.821-0.094-1.234
		C177.686,48.444,177.723,48.856,177.758,49.27"/>
	<path clip-path="url(#SVGID_2_)" fill="#B7BEC0" d="M177.614,45.382c0.004-0.376,0.006-0.752,0.021-1.128
		C177.62,44.629,177.618,45.009,177.614,45.382"/>
	<path clip-path="url(#SVGID_2_)" fill="#B7BEC0" d="M177.645,47.562c-0.021-0.528-0.037-1.057-0.037-1.59
		C177.608,46.501,177.624,47.031,177.645,47.562"/>
	<path clip-path="url(#SVGID_2_)" fill="#B7BEC0" d="M202.831,8.937c0.139-0.055,0.273-0.109,0.41-0.161
		C203.104,8.827,202.967,8.881,202.831,8.937"/>
	<path clip-path="url(#SVGID_2_)" fill="#F0CA67" d="M181.524,63.092c5.943,12.57,17.676,20.854,31.596,22.234
		C199.167,83.876,187.362,75.192,181.524,63.092"/>
	<path clip-path="url(#SVGID_2_)" fill="#F0CA67" d="M181.508,63.062c-0.176-0.371-0.34-0.747-0.508-1.119
		C181.166,62.315,181.334,62.69,181.508,63.062"/>
	<path clip-path="url(#SVGID_2_)" fill="#F0CA67" d="M256.75,49.741c-0.006,0.073-0.012,0.146-0.018,0.22
		C256.738,49.887,256.742,49.814,256.75,49.741"/>
	<path clip-path="url(#SVGID_2_)" fill="#F0CA67" d="M219.406,6.263c-0.705-0.036-1.414-0.057-2.131-0.057
		C217.993,6.209,218.702,6.232,219.406,6.263"/>
	<path clip-path="url(#SVGID_2_)" fill="#D5E962" d="M239.459,29.753c3.295,4.526,5.244,10.094,5.244,16.121h12.233v0.006
		c0,0.715-0.022,1.426-0.059,2.131c-0.002,0.028-0.002,0.06-0.004,0.092c0.043-0.739,0.066-1.482,0.066-2.232
		c0-8.535-2.695-16.443-7.283-22.913c-0.564-0.797-0.777-1.058-0.297-0.4L239.459,29.753z"/>
	
		<path clip-path="url(#SVGID_2_)" fill="none" stroke="#484F59" stroke-width="3" stroke-linecap="round" stroke-linejoin="bevel" stroke-miterlimit="10" d="
		M239.459,29.753c3.295,4.526,5.244,10.094,5.244,16.121h12.233v0.006c0,0.715-0.022,1.426-0.059,2.131
		c-0.002,0.028-0.002,0.06-0.004,0.092c0.043-0.739,0.066-1.482,0.066-2.232c0-8.535-2.695-16.443-7.283-22.913
		c-0.564-0.797-0.777-1.058-0.297-0.4L239.459,29.753z"/>
	<path clip-path="url(#SVGID_2_)" fill="#484F59" d="M240.592,77.956c0.621-0.451,1.232-0.917,1.826-1.402
		C241.826,77.031,241.219,77.502,240.592,77.956"/>
	<path clip-path="url(#SVGID_2_)" fill="#484F59" d="M256.936,45.879c0,0.718-0.025,1.426-0.059,2.131
		C256.915,47.306,256.936,46.595,256.936,45.879"/>
	<path clip-path="url(#SVGID_2_)" fill="#FFC400" d="M233.393,68.065c-4.525,3.295-10.096,5.244-16.123,5.244
		c-15.152,0-27.434-12.281-27.434-27.433c0-12.19,7.953-22.521,18.955-26.091l-3.779-11.633c-0.109,0.037-0.213,0.078-0.322,0.11
		c-0.488,0.165-0.973,0.335-1.449,0.513c-0.137,0.052-0.272,0.106-0.41,0.161c-14.915,5.766-24.584,19.279-25.196,35.317
		c-0.015,0.376-0.017,0.752-0.021,1.128c-0.002,0.166-0.01,0.331-0.01,0.498c0,0.031,0.004,0.061,0.004,0.092
		c0,0.533,0.015,1.062,0.037,1.59c0.01,0.158,0.01,0.316,0.019,0.474c0.022,0.413,0.059,0.822,0.094,1.234
		c0.024,0.285,0.043,0.573,0.076,0.859c0.024,0.229,0.059,0.457,0.086,0.683c0.061,0.474,0.119,0.947,0.194,1.416
		c0.006,0.026,0.011,0.052,0.015,0.078c0.551,3.376,1.528,6.604,2.871,9.637c0.168,0.372,0.332,0.748,0.508,1.119
		c0.004,0.009,0.012,0.02,0.016,0.031c5.838,12.1,17.642,20.785,31.596,22.235c0.08,0.009,0.158,0.013,0.238,0.022
		c0.467,0.047,0.939,0.08,1.41,0.112c0.242,0.01,0.48,0.027,0.723,0.039c0.316,0.013,0.634,0.017,0.955,0.023
		c0.275,0.005,0.549,0.021,0.826,0.021c8.713,0,16.767-2.818,23.31-7.581L233.393,68.065z"/>
	
		<path clip-path="url(#SVGID_2_)" fill="none" stroke="#484F59" stroke-width="3" stroke-linecap="round" stroke-linejoin="bevel" stroke-miterlimit="10" d="
		M233.393,68.065c-4.525,3.295-10.096,5.244-16.123,5.244c-15.152,0-27.434-12.281-27.434-27.433
		c0-12.19,7.953-22.521,18.955-26.091l-3.779-11.633c-0.109,0.037-0.213,0.078-0.322,0.11c-0.488,0.165-0.973,0.335-1.449,0.513
		c-0.137,0.052-0.272,0.106-0.41,0.161c-14.915,5.766-24.584,19.279-25.196,35.317c-0.015,0.376-0.017,0.752-0.021,1.128
		c-0.002,0.166-0.01,0.331-0.01,0.498c0,0.031,0.004,0.061,0.004,0.092c0,0.533,0.015,1.062,0.037,1.59
		c0.01,0.158,0.01,0.316,0.019,0.474c0.022,0.413,0.059,0.822,0.094,1.234c0.024,0.285,0.043,0.573,0.076,0.859
		c0.024,0.229,0.059,0.457,0.086,0.683c0.061,0.474,0.119,0.947,0.194,1.416c0.006,0.026,0.011,0.052,0.015,0.078
		c0.551,3.376,1.528,6.604,2.871,9.637c0.168,0.372,0.332,0.748,0.508,1.119c0.004,0.009,0.012,0.02,0.016,0.031
		c5.838,12.1,17.642,20.785,31.596,22.235c0.08,0.009,0.158,0.013,0.238,0.022c0.467,0.047,0.939,0.08,1.41,0.112
		c0.242,0.01,0.48,0.027,0.723,0.039c0.316,0.013,0.634,0.017,0.955,0.023c0.275,0.005,0.549,0.021,0.826,0.021
		c8.713,0,16.767-2.818,23.31-7.581L233.393,68.065z"/>
	<path clip-path="url(#SVGID_2_)" fill="#88D8FB" d="M242.418,76.553c8.395-6.797,13.314-15.969,14.314-26.593
		c0.006-0.074,0.012-0.146,0.018-0.219c0.049-0.543,0.096-1.089,0.123-1.639c0.002-0.031,0.002-0.064,0.004-0.092
		c0.033-0.705,0.059-1.413,0.059-2.131v-0.006h-12.233v0.002c0,9.124-4.459,17.201-11.31,22.19l7.189,9.898
		c0.004-0.003,0.006-0.003,0.01-0.008C241.219,77.501,241.826,77.031,242.418,76.553"/>
	
		<path clip-path="url(#SVGID_2_)" fill="none" stroke="#484F59" stroke-width="3" stroke-linecap="round" stroke-linejoin="bevel" stroke-miterlimit="10" d="
		M242.418,76.553c8.395-6.797,13.314-15.969,14.314-26.593c0.006-0.074,0.012-0.146,0.018-0.219
		c0.049-0.543,0.096-1.089,0.123-1.639c0.002-0.031,0.002-0.064,0.004-0.092c0.033-0.705,0.059-1.413,0.059-2.131v-0.006h-12.233
		v0.002c0,9.124-4.459,17.201-11.31,22.19l7.189,9.898c0.004-0.003,0.006-0.003,0.01-0.008
		C241.219,77.501,241.826,77.031,242.418,76.553z"/>
	<polyline clip-path="url(#SVGID_2_)" fill="none" stroke="#FFFFFF" stroke-width="3" stroke-miterlimit="10" points="
		251.219,74.612 255.432,84.225 261.477,84.225 	"/>
	
		<line clip-path="url(#SVGID_2_)" fill="none" stroke="#FFFFFF" stroke-width="3" stroke-miterlimit="10" x1="264.071" y1="84.225" x2="270.114" y2="84.225"/>
	<polyline clip-path="url(#SVGID_2_)" fill="none" stroke="#484F59" stroke-width="3" stroke-miterlimit="10" points="
		192.01,82.997 187.795,92.608 181.752,92.608 	"/>
	
		<line clip-path="url(#SVGID_2_)" fill="none" stroke="#484F59" stroke-width="3" stroke-miterlimit="10" x1="179.159" y1="92.608" x2="173.113" y2="92.608"/>
	<polygon clip-path="url(#SVGID_2_)" fill="#F7F8FC" points="220.739,131.287 220.739,80.021 220.739,54.322 202.321,35.901 
		150.948,35.901 150.948,54.93 150.948,80.021 150.948,131.287 	"/>
	<polygon clip-path="url(#SVGID_2_)" fill="none" stroke="#484F59" stroke-width="3" stroke-miterlimit="10" points="
		220.739,131.287 220.739,80.021 220.739,54.322 202.321,35.901 150.948,35.901 150.948,54.93 150.948,80.021 150.948,131.287 	"/>
	<polygon clip-path="url(#SVGID_2_)" fill="#47B8EB" points="202.321,54.322 220.739,54.322 202.321,35.901 	"/>
	<polygon clip-path="url(#SVGID_2_)" fill="none" stroke="#484F59" stroke-width="3" stroke-linejoin="bevel" points="
		202.321,54.322 220.739,54.322 202.321,35.901 	"/>
	
		<rect x="160.445" y="46.797" clip-path="url(#SVGID_2_)" fill="none" stroke="#484F59" stroke-width="3" stroke-miterlimit="10" width="28.078" height="6.606"/>
	<rect x="200.533" y="66.356" clip-path="url(#SVGID_2_)" fill="#FFC400" width="10.356" height="7.291"/>
	<rect x="178.976" y="66.356" clip-path="url(#SVGID_2_)" fill="#88D8FB" width="21.557" height="7.291"/>
	<rect x="160.445" y="66.356" clip-path="url(#SVGID_2_)" fill="#47B8EB" width="19.156" height="7.291"/>
	
		<rect x="160.444" y="66.356" clip-path="url(#SVGID_2_)" fill="none" stroke="#484F59" stroke-width="3" stroke-miterlimit="10" width="50.384" height="38.519"/>
	
		<line clip-path="url(#SVGID_2_)" fill="none" stroke="#484F59" stroke-width="3" stroke-miterlimit="10" x1="160.208" y1="73.786" x2="210.995" y2="73.786"/>
	
		<line clip-path="url(#SVGID_2_)" fill="none" stroke="#484F59" stroke-width="3" stroke-miterlimit="10" x1="200.358" y1="66.236" x2="200.358" y2="105.356"/>
	
		<line clip-path="url(#SVGID_2_)" fill="none" stroke="#484F59" stroke-width="3" stroke-miterlimit="10" x1="179.425" y1="66.236" x2="179.425" y2="105.356"/>
	
		<line clip-path="url(#SVGID_2_)" fill="none" stroke="#484F59" stroke-width="3" stroke-miterlimit="10" x1="211.682" y1="114.279" x2="192.466" y2="114.279"/>
	<polyline clip-path="url(#SVGID_2_)" fill="none" stroke="#FFFFFF" stroke-width="3" stroke-miterlimit="10" points="
		537.387,124.73 620.192,124.73 620.192,83.73 	"/>
	<polyline clip-path="url(#SVGID_2_)" fill="none" stroke="#FFFFFF" stroke-width="3" stroke-miterlimit="10" points="
		543.387,117.23 535.996,124.619 543.387,132.009 	"/>
	<path clip-path="url(#SVGID_2_)" fill="#CDD5D7" d="M10.79,18.686C4.781,24.687,1.482,32.685,1.5,41.191
		c0.023,8.472,3.326,16.433,9.295,22.402C23.178,75.965,43.33,75.966,55.701,63.58c6.008-6.008,9.303-14.012,9.289-22.522
		c-0.019-8.472-3.322-16.42-9.291-22.388c-5.992-5.988-13.965-9.289-22.459-9.281C24.752,9.392,16.775,12.693,10.79,18.686
		 M51.04,23.332c4.729,4.73,7.342,11.022,7.352,17.733c0.013,6.761-2.6,13.092-7.356,17.85c-9.805,9.82-25.762,9.82-35.57,0.008
		c-4.733-4.733-7.348-11.033-7.36-17.744c-0.017-6.747,2.594-13.08,7.346-17.832c4.748-4.749,11.057-7.366,17.795-7.362
		C39.969,15.98,46.294,18.595,51.04,23.332"/>
	<path clip-path="url(#SVGID_2_)" fill="none" stroke="#484F59" stroke-width="3" stroke-linejoin="round" d="M10.79,18.686
		C4.781,24.687,1.482,32.685,1.5,41.191c0.023,8.472,3.326,16.433,9.295,22.402C23.178,75.965,43.33,75.966,55.701,63.58
		c6.008-6.008,9.303-14.012,9.289-22.522c-0.019-8.472-3.322-16.42-9.291-22.388c-5.992-5.988-13.965-9.289-22.459-9.281
		C24.752,9.392,16.775,12.693,10.79,18.686z M51.04,23.332c4.729,4.73,7.342,11.022,7.352,17.733
		c0.013,6.761-2.6,13.092-7.356,17.85c-9.805,9.82-25.762,9.82-35.57,0.008c-4.733-4.733-7.348-11.033-7.36-17.744
		c-0.017-6.747,2.594-13.08,7.346-17.832c4.748-4.749,11.057-7.366,17.795-7.362C39.969,15.98,46.294,18.595,51.04,23.332z"/>
	<path clip-path="url(#SVGID_2_)" fill="#E5E8EC" d="M70.456,37.113c-1.906-0.025-3.818-0.051-5.731-0.077
		c0.168,1.324,0.262,2.666,0.266,4.021c0.002,1.386-0.092,2.753-0.262,4.105c1.915,0.026,3.829,0.052,5.758,0.077"/>
	<path clip-path="url(#SVGID_2_)" fill="none" stroke="#484F59" stroke-width="3" stroke-linejoin="round" d="M70.456,37.113
		c-1.906-0.025-3.818-0.051-5.731-0.077c0.168,1.324,0.262,2.666,0.266,4.021c0.002,1.386-0.092,2.753-0.262,4.105
		c1.915,0.026,3.829,0.052,5.758,0.077"/>
	<rect x="70.046" y="34.645" clip-path="url(#SVGID_2_)" fill="#88D8FB" width="40.475" height="12.969"/>
	
		<rect x="70.046" y="34.645" clip-path="url(#SVGID_2_)" fill="none" stroke="#484F59" stroke-width="3" stroke-linejoin="round" width="40.475" height="12.969"/>
	<rect x="70.046" y="34.644" clip-path="url(#SVGID_2_)" fill="#F7F8FC" width="4.709" height="12.971"/>
	
		<rect x="70.046" y="34.644" clip-path="url(#SVGID_2_)" fill="none" stroke="#484F59" stroke-width="3" stroke-linejoin="round" width="4.709" height="12.971"/>
	<path clip-path="url(#SVGID_2_)" fill="#F7F8FC" d="M113.636,34.646c3.579,3.578,3.579,9.385-0.001,12.967
		c-1.039,0.002-2.075,0.002-3.114,0.002c0-4.326,0.001-8.647,0-12.969C111.558,34.644,112.594,34.646,113.636,34.646"/>
	<path clip-path="url(#SVGID_2_)" fill="none" stroke="#484F59" stroke-width="3" stroke-linejoin="round" d="M113.636,34.646
		c3.579,3.578,3.579,9.385-0.001,12.967c-1.039,0.002-2.075,0.002-3.114,0.002c0-4.326,0.001-8.647,0-12.969
		C111.558,34.644,112.594,34.646,113.636,34.646z"/>
	
		<line clip-path="url(#SVGID_2_)" fill="none" stroke="#FFFFFF" stroke-width="3" stroke-miterlimit="10" x1="13.516" y1="25.286" x2="38.266" y2="50.036"/>
	
		<line clip-path="url(#SVGID_2_)" fill="none" stroke="#FFFFFF" stroke-width="3" stroke-miterlimit="10" x1="10.516" y1="31.786" x2="27.516" y2="48.786"/>
	
		<line clip-path="url(#SVGID_2_)" fill="none" stroke="#FFFFFF" stroke-width="3" stroke-miterlimit="10" x1="262.729" y1="123.149" x2="244.453" y2="123.149"/>
	
		<line clip-path="url(#SVGID_2_)" fill="none" stroke="#FFFFFF" stroke-width="3" stroke-miterlimit="10" x1="272.301" y1="123.149" x2="266.209" y2="123.149"/>
	<line clip-path="url(#SVGID_2_)" fill="#FFFFFF" x1="230.866" y1="130.762" x2="232.366" y2="130.762"/>
	
		<line clip-path="url(#SVGID_2_)" fill="none" stroke="#FFFFFF" stroke-width="3" stroke-miterlimit="10" x1="235.256" y1="130.762" x2="256.936" y2="130.762"/>
	
		<line clip-path="url(#SVGID_2_)" fill="none" stroke="#FFFFFF" stroke-width="3" stroke-miterlimit="10" x1="258.381" y1="130.762" x2="259.881" y2="130.762"/>
	
		<line clip-path="url(#SVGID_2_)" fill="none" stroke="#FFFFFF" stroke-width="3" stroke-miterlimit="10" x1="578.162" y1="115.133" x2="579.662" y2="115.133"/>
	
		<line clip-path="url(#SVGID_2_)" fill="none" stroke="#FFFFFF" stroke-width="3" stroke-miterlimit="10" x1="582.422" y1="115.133" x2="608.646" y2="115.133"/>
	
		<line clip-path="url(#SVGID_2_)" fill="none" stroke="#FFFFFF" stroke-width="3" stroke-miterlimit="10" x1="610.024" y1="115.133" x2="611.524" y2="115.133"/>
	
		<line clip-path="url(#SVGID_2_)" fill="none" stroke="#FFFFFF" stroke-width="3" stroke-miterlimit="10" x1="123.141" y1="66.029" x2="141.181" y2="66.029"/>
	
		<line clip-path="url(#SVGID_2_)" fill="none" stroke="#FFFFFF" stroke-width="3" stroke-miterlimit="10" x1="113.692" y1="66.029" x2="119.706" y2="66.029"/>
	
		<line clip-path="url(#SVGID_2_)" fill="none" stroke="#FFFFFF" stroke-width="3" stroke-miterlimit="10" x1="132.141" y1="74.029" x2="141.181" y2="74.029"/>
	
		<line clip-path="url(#SVGID_2_)" fill="none" stroke="#FFFFFF" stroke-width="3" stroke-miterlimit="10" x1="122.692" y1="74.029" x2="128.706" y2="74.029"/>
	
		<line clip-path="url(#SVGID_2_)" fill="none" stroke="#FFFFFF" stroke-width="3" stroke-miterlimit="10" x1="245.26" y1="99.854" x2="237.364" y2="107.75"/>
	
		<line clip-path="url(#SVGID_2_)" fill="none" stroke="#FFFFFF" stroke-width="3" stroke-miterlimit="10" x1="245.264" y1="107.75" x2="237.363" y2="99.85"/>
	<path clip-path="url(#SVGID_2_)" fill="#FFFFFF" d="M563.775,101.798c-17.306,0-31.333-14.031-31.333-31.334
		c0-17.307,14.027-31.334,31.333-31.334c17.308,0,31.335,14.027,31.335,31.334C595.11,87.767,581.083,101.798,563.775,101.798"/>
	
		<path clip-path="url(#SVGID_2_)" fill="none" stroke="#484F59" stroke-width="3" stroke-linecap="round" stroke-linejoin="bevel" stroke-miterlimit="10" d="
		M563.775,101.798c-17.306,0-31.333-14.031-31.333-31.334c0-17.307,14.027-31.334,31.333-31.334
		c17.308,0,31.335,14.027,31.335,31.334C595.11,87.767,581.083,101.798,563.775,101.798z"/>
	
		<line clip-path="url(#SVGID_2_)" fill="none" stroke="#484F59" stroke-width="3" stroke-miterlimit="10" x1="563.775" y1="44.682" x2="563.775" y2="50.036"/>
	
		<line clip-path="url(#SVGID_2_)" fill="none" stroke="#484F59" stroke-width="3" stroke-miterlimit="10" x1="576.667" y1="48.137" x2="573.989" y2="52.774"/>
	
		<line clip-path="url(#SVGID_2_)" fill="none" stroke="#484F59" stroke-width="3" stroke-miterlimit="10" x1="586.104" y1="57.576" x2="581.466" y2="60.25"/>
	
		<line clip-path="url(#SVGID_2_)" fill="none" stroke="#484F59" stroke-width="3" stroke-miterlimit="10" x1="589.559" y1="70.463" x2="584.204" y2="70.463"/>
	
		<line clip-path="url(#SVGID_2_)" fill="none" stroke="#484F59" stroke-width="3" stroke-miterlimit="10" x1="586.104" y1="83.353" x2="581.466" y2="80.677"/>
	
		<line clip-path="url(#SVGID_2_)" fill="none" stroke="#484F59" stroke-width="3" stroke-miterlimit="10" x1="576.667" y1="92.791" x2="573.989" y2="88.155"/>
	
		<line clip-path="url(#SVGID_2_)" fill="none" stroke="#484F59" stroke-width="3" stroke-miterlimit="10" x1="563.775" y1="96.246" x2="563.777" y2="90.892"/>
	
		<line clip-path="url(#SVGID_2_)" fill="none" stroke="#484F59" stroke-width="3" stroke-miterlimit="10" x1="550.883" y1="92.791" x2="553.564" y2="88.155"/>
	
		<line clip-path="url(#SVGID_2_)" fill="none" stroke="#484F59" stroke-width="3" stroke-miterlimit="10" x1="541.448" y1="83.353" x2="546.088" y2="80.677"/>
	
		<line clip-path="url(#SVGID_2_)" fill="none" stroke="#484F59" stroke-width="3" stroke-miterlimit="10" x1="537.994" y1="70.463" x2="543.35" y2="70.465"/>
	
		<line clip-path="url(#SVGID_2_)" fill="none" stroke="#484F59" stroke-width="3" stroke-miterlimit="10" x1="541.448" y1="57.576" x2="546.088" y2="60.25"/>
	
		<line clip-path="url(#SVGID_2_)" fill="none" stroke="#484F59" stroke-width="3" stroke-miterlimit="10" x1="550.886" y1="48.137" x2="553.561" y2="52.774"/>
	<path clip-path="url(#SVGID_2_)" fill="#F7F8FC" d="M562.574,69.388c-0.594,0.662-0.535,1.684,0.128,2.276
		c0.664,0.593,1.684,0.537,2.276-0.125c0.594-0.664,0.537-1.685-0.128-2.277C564.188,68.667,563.169,68.727,562.574,69.388"/>
	
		<circle clip-path="url(#SVGID_2_)" fill="none" stroke="#484F59" stroke-width="3" stroke-linecap="round" stroke-linejoin="bevel" stroke-miterlimit="10" cx="563.776" cy="70.464" r="1.613"/>
	
		<line clip-path="url(#SVGID_2_)" fill="none" stroke="#484F59" stroke-width="3" stroke-miterlimit="10" x1="576.069" y1="56.717" x2="564.851" y2="69.263"/>
	
		<line clip-path="url(#SVGID_2_)" fill="none" stroke="#484F59" stroke-width="3" stroke-miterlimit="10" x1="552.031" y1="59.947" x2="563.078" y2="69.83"/>
	<path clip-path="url(#SVGID_2_)" fill="#FEDA1D" d="M523.305,123.625c0,0.996-0.807,1.801-1.803,1.801l-61.041-0.031
		c-0.996,0-1.801-0.809-1.801-1.803l0.048-82.779c0.001-0.995,0.808-1.803,1.804-1.799l61.041,0.031
		c0.996,0,1.801,0.807,1.801,1.802L523.305,123.625z"/>
	<path clip-path="url(#SVGID_2_)" fill="none" stroke="#484F59" stroke-width="3" stroke-miterlimit="10" d="M523.305,123.625
		c0,0.996-0.807,1.801-1.803,1.801l-61.041-0.031c-0.996,0-1.801-0.809-1.801-1.803l0.048-82.779
		c0.001-0.995,0.808-1.803,1.804-1.799l61.041,0.031c0.996,0,1.801,0.807,1.801,1.802L523.305,123.625z"/>
	<rect x="464.892" y="44.438" clip-path="url(#SVGID_2_)" fill="#F7F8FC" width="52.659" height="74.474"/>
	
		<rect x="464.892" y="44.438" clip-path="url(#SVGID_2_)" fill="none" stroke="#484F59" stroke-width="3" stroke-miterlimit="10" width="52.659" height="74.474"/>
	<path clip-path="url(#SVGID_2_)" fill="#88D8FB" d="M510.234,100.912c0,5.946-4.822,10.769-10.77,10.769
		s-10.769-4.822-10.769-10.769s4.821-10.77,10.769-10.77S510.234,94.966,510.234,100.912"/>
	
		<line clip-path="url(#SVGID_2_)" fill="none" stroke="#484F59" stroke-width="3" stroke-miterlimit="10" x1="504.033" y1="96.344" x2="494.896" y2="105.481"/>
	
		<line clip-path="url(#SVGID_2_)" fill="none" stroke="#484F59" stroke-width="3" stroke-miterlimit="10" x1="494.896" y1="96.344" x2="504.034" y2="105.481"/>
	
		<circle clip-path="url(#SVGID_2_)" fill="none" stroke="#484F59" stroke-width="3" stroke-miterlimit="10" cx="479.78" cy="68.42" r="6.192"/>
	<polyline clip-path="url(#SVGID_2_)" fill="none" stroke="#484F59" stroke-width="3" points="508.914,66.296 501.349,58.731 
		493.783,66.296 	"/>
	<path clip-path="url(#SVGID_2_)" fill="none" stroke="#484F59" stroke-width="3" d="M470.756,93.652
		c17.01,0,30.797-13.606,30.797-30.391c0-1.048-0.055-2.085-0.157-3.107"/>
	<path clip-path="url(#SVGID_2_)" fill="#FFC400" d="M433.473,128.236c0,8.614-6.983,15.604-15.604,15.604
		c-8.619,0-15.604-6.989-15.604-15.604s6.985-15.604,15.604-15.604C426.489,112.633,433.473,119.622,433.473,128.236"/>
	<path clip-path="url(#SVGID_2_)" fill="none" stroke="#484F59" stroke-width="3" stroke-miterlimit="10" d="M433.473,128.236
		c0,8.614-6.983,15.604-15.604,15.604c-8.619,0-15.604-6.989-15.604-15.604s6.985-15.604,15.604-15.604
		C426.489,112.633,433.473,119.622,433.473,128.236z"/>
	<path clip-path="url(#SVGID_2_)" fill="#FEDA1D" d="M428.478,128.236c0,5.86-4.748,10.608-10.609,10.608
		s-10.612-4.748-10.612-10.608c0-5.859,4.751-10.607,10.612-10.607S428.478,122.377,428.478,128.236"/>
	<circle clip-path="url(#SVGID_2_)" fill="none" stroke="#FFDC69" stroke-miterlimit="10" cx="417.867" cy="128.236" r="10.611"/>
	
		<polyline clip-path="url(#SVGID_2_)" fill="none" stroke="#484F59" stroke-width="3" stroke-linejoin="bevel" stroke-miterlimit="10" points="
		417.846,133.357 417.846,121.603 413.807,125.795 	"/>
	
		<line clip-path="url(#SVGID_2_)" fill="none" stroke="#484F59" stroke-width="3" stroke-miterlimit="10" x1="415.912" y1="133.317" x2="419.719" y2="133.317"/>
	<path clip-path="url(#SVGID_2_)" fill="#E5E8EC" d="M447.111,100.939c0,0.396-0.317,0.713-0.71,0.713H403.21
		c-0.394,0-0.71-0.317-0.71-0.713V41.078c0-0.391,0.316-0.709,0.71-0.709h43.191c0.393,0,0.71,0.318,0.71,0.709V100.939z"/>
	<path clip-path="url(#SVGID_2_)" fill="none" stroke="#484F59" stroke-width="3" stroke-miterlimit="10" d="M447.111,100.939
		c0,0.396-0.317,0.713-0.71,0.713H403.21c-0.394,0-0.71-0.317-0.71-0.713V41.078c0-0.391,0.316-0.709,0.71-0.709h43.191
		c0.393,0,0.71,0.318,0.71,0.709V100.939z"/>
	<path clip-path="url(#SVGID_2_)" fill="none" stroke="#484F59" stroke-width="3" stroke-miterlimit="10" d="M447.111,48.266v47.607
		c0,0.396-0.317,0.713-0.71,0.713H403.21c-0.394,0-0.71-0.317-0.71-0.713V48.266"/>
	<rect x="408.609" y="49.461" clip-path="url(#SVGID_2_)" fill="#F6FAFB" width="32.393" height="7.767"/>
	
		<rect x="408.609" y="49.461" clip-path="url(#SVGID_2_)" fill="none" stroke="#484F59" stroke-width="3" stroke-miterlimit="10" width="32.393" height="7.767"/>
	
		<line clip-path="url(#SVGID_2_)" fill="none" stroke="#484F59" stroke-width="3" stroke-miterlimit="10" x1="407.123" y1="64.305" x2="413.885" y2="64.305"/>
	
		<line clip-path="url(#SVGID_2_)" fill="none" stroke="#484F59" stroke-width="3" stroke-miterlimit="10" x1="416.657" y1="64.305" x2="423.42" y2="64.305"/>
	
		<line clip-path="url(#SVGID_2_)" fill="none" stroke="#484F59" stroke-width="3" stroke-miterlimit="10" x1="426.191" y1="64.305" x2="432.953" y2="64.305"/>
	
		<line clip-path="url(#SVGID_2_)" fill="none" stroke="#484F59" stroke-width="3" stroke-miterlimit="10" x1="435.726" y1="64.305" x2="442.487" y2="64.305"/>
	
		<line clip-path="url(#SVGID_2_)" fill="none" stroke="#484F59" stroke-width="3" stroke-miterlimit="10" x1="407.123" y1="70.384" x2="413.885" y2="70.384"/>
	
		<line clip-path="url(#SVGID_2_)" fill="none" stroke="#484F59" stroke-width="3" stroke-miterlimit="10" x1="416.657" y1="70.384" x2="423.42" y2="70.384"/>
	
		<line clip-path="url(#SVGID_2_)" fill="none" stroke="#484F59" stroke-width="3" stroke-miterlimit="10" x1="426.191" y1="70.384" x2="432.953" y2="70.384"/>
	
		<line clip-path="url(#SVGID_2_)" fill="none" stroke="#484F59" stroke-width="3" stroke-miterlimit="10" x1="435.726" y1="70.384" x2="442.487" y2="70.384"/>
	
		<line clip-path="url(#SVGID_2_)" fill="none" stroke="#484F59" stroke-width="3" stroke-miterlimit="10" x1="407.123" y1="76.463" x2="413.885" y2="76.463"/>
	
		<line clip-path="url(#SVGID_2_)" fill="none" stroke="#484F59" stroke-width="3" stroke-miterlimit="10" x1="416.657" y1="76.463" x2="423.42" y2="76.463"/>
	
		<line clip-path="url(#SVGID_2_)" fill="none" stroke="#484F59" stroke-width="3" stroke-miterlimit="10" x1="426.191" y1="76.463" x2="432.953" y2="76.463"/>
	
		<line clip-path="url(#SVGID_2_)" fill="none" stroke="#484F59" stroke-width="3" stroke-miterlimit="10" x1="435.726" y1="76.463" x2="442.487" y2="76.463"/>
	
		<line clip-path="url(#SVGID_2_)" fill="none" stroke="#484F59" stroke-width="3" stroke-miterlimit="10" x1="407.123" y1="82.542" x2="413.885" y2="82.542"/>
	
		<line clip-path="url(#SVGID_2_)" fill="none" stroke="#484F59" stroke-width="3" stroke-miterlimit="10" x1="416.657" y1="82.542" x2="423.42" y2="82.542"/>
	
		<line clip-path="url(#SVGID_2_)" fill="none" stroke="#484F59" stroke-width="3" stroke-miterlimit="10" x1="426.191" y1="82.542" x2="432.953" y2="82.542"/>
	
		<line clip-path="url(#SVGID_2_)" fill="none" stroke="#484F59" stroke-width="3" stroke-miterlimit="10" x1="435.726" y1="82.542" x2="442.487" y2="82.542"/>
	
		<line clip-path="url(#SVGID_2_)" fill="none" stroke="#484F59" stroke-width="3" stroke-miterlimit="10" x1="407.123" y1="88.619" x2="413.885" y2="88.619"/>
	
		<line clip-path="url(#SVGID_2_)" fill="none" stroke="#484F59" stroke-width="3" stroke-miterlimit="10" x1="416.657" y1="88.619" x2="423.42" y2="88.619"/>
	
		<line clip-path="url(#SVGID_2_)" fill="none" stroke="#484F59" stroke-width="3" stroke-miterlimit="10" x1="426.191" y1="88.619" x2="432.953" y2="88.619"/>
	
		<line clip-path="url(#SVGID_2_)" fill="none" stroke="#484F59" stroke-width="3" stroke-miterlimit="10" x1="435.726" y1="88.619" x2="442.487" y2="88.619"/>
	
		<line clip-path="url(#SVGID_2_)" fill="none" stroke="#484F59" stroke-width="3" stroke-miterlimit="10" x1="18.378" y1="104.673" x2="22.831" y2="104.673"/>
	
		<line clip-path="url(#SVGID_2_)" fill="none" stroke="#484F59" stroke-width="3" stroke-miterlimit="10" x1="47.128" y1="104.673" x2="56.026" y2="104.673"/>
	
		<line clip-path="url(#SVGID_2_)" fill="none" stroke="#484F59" stroke-width="3" stroke-miterlimit="10" x1="118.738" y1="104.673" x2="127.64" y2="104.673"/>
	<path clip-path="url(#SVGID_2_)" fill="#47B8EB" d="M18.378,104.673c0,4.629-3.755,8.383-8.388,8.383
		c-4.627,0-8.382-3.754-8.382-8.383c0-4.633,3.755-8.388,8.382-8.388C14.623,96.285,18.378,100.04,18.378,104.673"/>
	<path clip-path="url(#SVGID_2_)" fill="none" stroke="#484F59" stroke-width="3" stroke-miterlimit="10" d="M18.378,104.673
		c0,4.629-3.755,8.383-8.388,8.383c-4.627,0-8.382-3.754-8.382-8.383c0-4.633,3.755-8.388,8.382-8.388
		C14.623,96.285,18.378,100.04,18.378,104.673z"/>
	<path clip-path="url(#SVGID_2_)" fill="#FFC400" d="M117.956,104.673c0,4.629-3.755,8.383-8.384,8.383
		c-4.63,0-8.385-3.754-8.385-8.383c0-4.633,3.755-8.388,8.385-8.388C114.2,96.285,117.956,100.04,117.956,104.673"/>
	<path clip-path="url(#SVGID_2_)" fill="none" stroke="#484F59" stroke-width="3" stroke-miterlimit="10" d="M117.956,104.673
		c0,4.629-3.755,8.383-8.384,8.383c-4.63,0-8.385-3.754-8.385-8.383c0-4.633,3.755-8.388,8.385-8.388
		C114.2,96.285,117.956,100.04,117.956,104.673z"/>
	<rect x="56.156" y="97.721" clip-path="url(#SVGID_2_)" fill="#FFFFFF" width="29.705" height="13.896"/>
	
		<rect x="56.156" y="97.721" clip-path="url(#SVGID_2_)" fill="none" stroke="#484F59" stroke-width="3" stroke-miterlimit="10" width="29.705" height="13.896"/>
	<rect x="127.283" y="97.721" clip-path="url(#SVGID_2_)" fill="#D5E962" width="13.898" height="13.896"/>
	
		<rect x="127.283" y="97.721" clip-path="url(#SVGID_2_)" fill="none" stroke="#484F59" stroke-width="3" stroke-miterlimit="10" width="13.898" height="13.896"/>
	<polygon clip-path="url(#SVGID_2_)" fill="#FFC400" points="34.787,116.591 22.864,104.673 34.787,92.748 46.709,104.673 	"/>
	<polygon clip-path="url(#SVGID_2_)" fill="none" stroke="#484F59" stroke-width="3" stroke-miterlimit="10" points="
		34.787,116.591 22.864,104.673 34.787,92.748 46.709,104.673 	"/>
	<polyline clip-path="url(#SVGID_2_)" fill="none" stroke="#FFFFFF" stroke-width="3" stroke-miterlimit="10" points="
		56.458,125.077 34.579,125.077 34.579,116.931 	"/>
	<polyline clip-path="url(#SVGID_2_)" fill="none" stroke="#FFFFFF" stroke-width="3" stroke-miterlimit="10" points="
		56.458,84.265 34.579,84.265 34.579,92.413 	"/>
	<polyline clip-path="url(#SVGID_2_)" fill="none" stroke="#FFFFFF" stroke-width="3" stroke-miterlimit="10" points="
		86.738,125.077 110.185,125.077 110.185,112.718 	"/>
	<polyline clip-path="url(#SVGID_2_)" fill="none" stroke="#FFFFFF" stroke-width="3" stroke-miterlimit="10" points="
		86.738,84.265 110.185,84.265 110.185,96.623 	"/>
	<rect x="56.156" y="78.054" clip-path="url(#SVGID_2_)" fill="#FFFFFF" width="29.705" height="13.892"/>
	
		<rect x="56.156" y="78.054" clip-path="url(#SVGID_2_)" fill="none" stroke="#484F59" stroke-width="3" stroke-miterlimit="10" width="29.705" height="13.892"/>
	<rect x="56.156" y="117.394" clip-path="url(#SVGID_2_)" fill="#FFFFFF" width="29.705" height="13.894"/>
	
		<rect x="56.156" y="117.394" clip-path="url(#SVGID_2_)" fill="none" stroke="#484F59" stroke-width="3" stroke-miterlimit="10" width="29.705" height="13.894"/>
	<path clip-path="url(#SVGID_2_)" fill="#FEDA1D" d="M601.083,37.687c0-10.837,8.774-19.611,19.608-19.611
		c10.835,0,19.614,8.774,19.614,19.611c0,0.641-0.473,9.704-7.86,19.218c-2.163,2.871-1.805,8.641-1.787,8.641h-8.578h-2.785h-8.619
		c0.021,0,0.418-5.77-1.736-8.641C601.542,47.384,601.083,38.328,601.083,37.687"/>
	<path clip-path="url(#SVGID_2_)" fill="none" stroke="#FFC400" stroke-miterlimit="10" d="M601.083,37.687
		c0-10.837,8.774-19.611,19.608-19.611c10.835,0,19.614,8.774,19.614,19.611c0,0.641-0.473,9.704-7.86,19.218
		c-2.163,2.871-1.805,8.641-1.787,8.641h-8.578h-2.785h-8.619c0.021,0,0.418-5.77-1.736-8.641
		C601.542,47.384,601.083,38.328,601.083,37.687z"/>
	<path clip-path="url(#SVGID_2_)" fill="none" stroke="#484F59" stroke-width="3" stroke-miterlimit="10" d="M601.083,37.687
		c0-10.837,8.774-19.611,19.608-19.611c10.835,0,19.614,8.774,19.614,19.611c0,0.641-0.473,9.704-7.86,19.218
		c-2.163,2.871-1.805,8.641-1.787,8.641h-8.578h-2.785h-8.619c0.021,0,0.418-5.77-1.736-8.641
		C601.542,47.384,601.083,38.328,601.083,37.687z"/>
	<line clip-path="url(#SVGID_2_)" fill="#41A9D8" x1="615.752" y1="65.465" x2="612.069" y2="42.758"/>
	
		<line clip-path="url(#SVGID_2_)" fill="none" stroke="#484F59" stroke-width="3" x1="615.752" y1="65.465" x2="612.069" y2="42.758"/>
	<line clip-path="url(#SVGID_2_)" fill="#41A9D8" x1="625.641" y1="65.465" x2="629.316" y2="42.758"/>
	
		<line clip-path="url(#SVGID_2_)" fill="none" stroke="#484F59" stroke-width="3" x1="625.641" y1="65.465" x2="629.316" y2="42.758"/>
	<polyline clip-path="url(#SVGID_2_)" fill="none" stroke="#484F59" stroke-width="3" points="612.306,43.483 614.001,45.483 
		615.698,43.483 617.399,45.483 619.098,43.483 620.798,45.483 622.501,43.483 624.202,45.483 625.907,43.483 627.614,45.483 
		629.321,43.483 	"/>
	<path clip-path="url(#SVGID_2_)" fill="#E5E8EC" d="M631.973,69.848c0-0.758-0.518-1.389-1.218-1.587
		c0.7-0.197,1.218-0.83,1.218-1.588c0-0.892-0.71-1.614-1.598-1.65h-3.333h-12.699h-3.331c-0.887,0.036-1.597,0.758-1.597,1.65
		c0,0.758,0.518,1.391,1.215,1.588c-0.697,0.198-1.215,0.829-1.215,1.587c0,0.761,0.518,1.395,1.215,1.591
		c-0.697,0.195-1.215,0.831-1.215,1.588c0,0.891,0.71,1.614,1.597,1.65v0.146c0,1.222,0.994,2.211,2.222,2.211h3.329h8.261h3.334
		c1.223,0,2.218-0.989,2.218-2.211v-0.146c0.888-0.036,1.598-0.759,1.598-1.65c0-0.757-0.518-1.393-1.218-1.588
		C631.455,71.242,631.973,70.608,631.973,69.848"/>
	
		<path clip-path="url(#SVGID_2_)" fill="none" stroke="#484F59" stroke-width="3" stroke-linecap="round" stroke-linejoin="bevel" stroke-miterlimit="10" d="
		M631.973,69.848c0-0.758-0.518-1.389-1.218-1.587c0.7-0.197,1.218-0.83,1.218-1.588c0-0.892-0.71-1.614-1.598-1.65h-3.333h-12.699
		h-3.331c-0.887,0.036-1.597,0.758-1.597,1.65c0,0.758,0.518,1.391,1.215,1.588c-0.697,0.198-1.215,0.829-1.215,1.587
		c0,0.761,0.518,1.395,1.215,1.591c-0.697,0.195-1.215,0.831-1.215,1.588c0,0.891,0.71,1.614,1.597,1.65v0.146
		c0,1.222,0.994,2.211,2.222,2.211h3.329h8.261h3.334c1.223,0,2.218-0.989,2.218-2.211v-0.146c0.888-0.036,1.598-0.759,1.598-1.65
		c0-0.757-0.518-1.393-1.218-1.588C631.455,71.242,631.973,70.608,631.973,69.848z"/>
	
		<line clip-path="url(#SVGID_2_)" fill="none" stroke="#484F59" stroke-width="3" x1="610.244" y1="70.062" x2="626.752" y2="70.062"/>
	
		<line clip-path="url(#SVGID_2_)" fill="none" stroke="#FFFFFF" stroke-width="3" stroke-miterlimit="10" x1="620.156" y1="0.837" x2="620.156" y2="8.076"/>
	
		<line clip-path="url(#SVGID_2_)" fill="none" stroke="#FFFFFF" stroke-width="3" stroke-miterlimit="10" x1="602.672" y1="5.811" x2="606.29" y2="12.078"/>
	
		<line clip-path="url(#SVGID_2_)" fill="none" stroke="#FFFFFF" stroke-width="3" stroke-miterlimit="10" x1="590.016" y1="18.861" x2="596.287" y2="22.478"/>
	
		<line clip-path="url(#SVGID_2_)" fill="none" stroke="#FFFFFF" stroke-width="3" stroke-miterlimit="10" x1="585.582" y1="36.485" x2="592.816" y2="36.485"/>
	
		<line clip-path="url(#SVGID_2_)" fill="none" stroke="#FFFFFF" stroke-width="3" stroke-miterlimit="10" x1="655.808" y1="35.414" x2="648.57" y2="35.414"/>
	
		<line clip-path="url(#SVGID_2_)" fill="none" stroke="#FFFFFF" stroke-width="3" stroke-miterlimit="10" x1="650.835" y1="17.931" x2="644.564" y2="21.546"/>
	
		<line clip-path="url(#SVGID_2_)" fill="none" stroke="#FFFFFF" stroke-width="3" stroke-miterlimit="10" x1="637.787" y1="5.273" x2="634.166" y2="11.541"/>
	
		<line clip-path="url(#SVGID_2_)" fill="none" stroke="#FFFFFF" stroke-width="3" stroke-miterlimit="10" x1="651.102" y1="53.403" x2="644.834" y2="49.784"/>
</g>
</svg>
