<?xml version="1.0" encoding="utf-8"?>
<!-- Generator: Adobe Illustrator 16.0.0, SVG Export Plug-In . SVG Version: 6.00 Build 0)  -->
<!DOCTYPE svg PUBLIC "-//W3C//DTD SVG 1.1//EN" "http://www.w3.org/Graphics/SVG/1.1/DTD/svg11.dtd">
<svg version="1.1" id="Layer_1" xmlns="http://www.w3.org/2000/svg" xmlns:xlink="http://www.w3.org/1999/xlink" x="0px" y="0px"
	 width="701.116px" height="189.904px" viewBox="0 0 701.116 189.904" enable-background="new 0 0 701.116 189.904"
	 xml:space="preserve">
<line fill="none" stroke="#484F59" stroke-width="3" stroke-miterlimit="10" x1="218.182" y1="135.289" x2="219.682" y2="135.289"/>
<line fill="none" stroke="#484F59" stroke-width="3" stroke-miterlimit="10" stroke-dasharray="3.145,3.145" x1="222.827" y1="135.289" x2="277.867" y2="135.289"/>
<line fill="none" stroke="#484F59" stroke-width="3" stroke-miterlimit="10" x1="279.439" y1="135.289" x2="280.939" y2="135.289"/>
<line fill="none" stroke="#606060" stroke-width="3" stroke-miterlimit="10" x1="642.313" y1="29.762" x2="642.313" y2="40.787"/>
<line fill="none" stroke="#606060" stroke-width="3" stroke-miterlimit="10" x1="647.827" y1="35.273" x2="636.798" y2="35.273"/>
<line fill="none" stroke="#606060" stroke-width="3" stroke-miterlimit="10" x1="194.206" y1="11.477" x2="194.206" y2="14.606"/>
<line fill="none" stroke="#606060" stroke-width="3" stroke-miterlimit="10" x1="194.206" y1="11.477" x2="194.206" y2="14.606"/>
<line fill="none" stroke="#606060" stroke-width="3" stroke-miterlimit="10" x1="184.335" y1="17.178" x2="187.044" y2="18.74"/>
<line fill="none" stroke="#606060" stroke-width="3" stroke-miterlimit="10" x1="184.335" y1="28.575" x2="187.044" y2="27.011"/>
<line fill="none" stroke="#606060" stroke-width="3" stroke-miterlimit="10" x1="194.206" y1="34.275" x2="194.204" y2="31.146"/>
<line fill="none" stroke="#606060" stroke-width="3" stroke-miterlimit="10" x1="204.077" y1="28.575" x2="201.367" y2="27.011"/>
<line fill="none" stroke="#606060" stroke-width="3" stroke-miterlimit="10" x1="204.077" y1="17.178" x2="201.369" y2="18.741"/>
<rect x="183.439" y="65.193" fill="#F99F00" width="97.5" height="48.342"/>
<rect x="183.439" y="112.905" fill="#F6FAFB" width="97.467" height="10.67"/>
<rect x="183.439" y="112.905" fill="none" stroke="#484F59" stroke-width="3" stroke-miterlimit="10" width="97.467" height="10.67"/>
<polygon fill="#FFFFFF" points="237.375,89.837 232.256,92.79 227.139,95.745 227.139,89.837 227.139,83.926 232.256,86.881 "/>
<polygon fill="none" stroke="#484F59" stroke-width="3" stroke-miterlimit="10" points="237.375,89.837 232.256,92.79 
	227.139,95.745 227.139,89.837 227.139,83.926 232.256,86.881 "/>
<line fill="none" stroke="#484F59" stroke-width="3" stroke-miterlimit="10" x1="193.367" y1="118.24" x2="266.4" y2="118.24"/>
<line fill="none" stroke="#484F59" stroke-width="3" stroke-miterlimit="10" x1="268.488" y1="118.24" x2="271.816" y2="118.24"/>
<line fill="none" stroke="#484F59" stroke-width="3" stroke-miterlimit="10" x1="274.107" y1="118.24" x2="277.095" y2="118.24"/>
<line fill="none" stroke="#484F59" stroke-width="3" stroke-miterlimit="10" x1="187.227" y1="118.24" x2="190.214" y2="118.24"/>
<polygon fill="#F7F8FC" points="168.688,66.43 168.688,38.598 168.688,24.645 158.688,14.644 130.795,14.644 130.795,24.975 
	130.795,38.598 130.795,66.43 "/>
<polygon fill="none" stroke="#484F59" stroke-width="3" stroke-miterlimit="10" points="168.688,66.43 168.688,38.598 
	168.688,24.645 158.688,14.644 130.795,14.644 130.795,24.975 130.795,38.598 130.795,66.43 "/>
<polygon fill="#88D8FB" points="158.688,24.645 168.688,24.645 158.688,14.644 "/>
<polygon fill="none" stroke="#484F59" stroke-width="3" stroke-linejoin="bevel" points="158.688,24.645 168.688,24.645 
	158.688,14.644 "/>
<polygon fill="#FEDA1D" points="180.763,57.859 174.245,57.859 174.245,36.575 166.986,36.575 159.077,36.575 159.077,57.859 
	152.551,57.859 166.654,76.509 "/>
<polygon fill="none" stroke="#484F59" stroke-width="3" stroke-miterlimit="10" points="180.763,57.859 174.245,57.859 
	174.245,36.575 166.986,36.575 159.077,36.575 159.077,57.859 152.551,57.859 166.654,76.509 "/>
<rect x="130.234" y="85.403" fill="#FFFFFF" width="45.406" height="38.172"/>
<rect x="130.234" y="85.403" fill="none" stroke="#424953" stroke-width="3" width="45.406" height="38.172"/>
<rect x="130.234" y="85.403" fill="#FEDA1D" width="45.406" height="9.921"/>
<rect x="130.234" y="85.403" fill="none" stroke="#424953" stroke-width="3" width="45.406" height="9.921"/>
<rect x="136.34" y="100.339" fill="#424953" width="3.319" height="3.319"/>
<rect x="141.319" y="100.339" fill="#424953" width="3.319" height="3.319"/>
<rect x="146.298" y="100.339" fill="#424953" width="3.319" height="3.319"/>
<rect x="151.278" y="100.339" fill="#424953" width="3.319" height="3.319"/>
<rect x="156.257" y="100.339" fill="#424953" width="3.32" height="3.319"/>
<rect x="161.236" y="100.339" fill="#424953" width="3.319" height="3.319"/>
<rect x="166.216" y="100.339" fill="#424953" width="3.319" height="3.319"/>
<rect x="136.34" y="105.32" fill="#424953" width="3.319" height="3.319"/>
<rect x="141.319" y="105.32" fill="#424953" width="3.319" height="3.319"/>
<rect x="146.298" y="105.32" fill="#424953" width="3.319" height="3.319"/>
<rect x="151.278" y="105.32" fill="#424953" width="3.319" height="3.319"/>
<rect x="156.257" y="105.32" fill="#424953" width="3.32" height="3.319"/>
<rect x="161.236" y="105.32" fill="#424953" width="3.319" height="3.319"/>
<rect x="166.216" y="105.32" fill="#424953" width="3.319" height="3.319"/>
<rect x="136.34" y="110.3" fill="#424953" width="3.319" height="3.318"/>
<rect x="141.319" y="110.3" fill="#424953" width="3.319" height="3.318"/>
<rect x="146.298" y="110.3" fill="#424953" width="3.319" height="3.318"/>
<rect x="151.278" y="110.3" fill="#424953" width="3.319" height="3.318"/>
<rect x="156.257" y="110.3" fill="#424953" width="3.32" height="3.318"/>
<rect x="161.236" y="110.3" fill="#424953" width="3.319" height="3.318"/>
<rect x="166.216" y="110.3" fill="#424953" width="3.319" height="3.318"/>
<rect x="136.34" y="115.278" fill="#424953" width="3.319" height="3.319"/>
<rect x="141.319" y="115.278" fill="#424953" width="3.319" height="3.319"/>
<rect x="146.298" y="115.278" fill="#424953" width="3.319" height="3.319"/>
<rect x="151.278" y="115.278" fill="#424953" width="3.319" height="3.319"/>
<rect x="156.257" y="115.278" fill="#424953" width="3.32" height="3.319"/>
<rect x="161.236" y="115.278" fill="#424953" width="3.319" height="3.319"/>
<rect x="166.216" y="115.278" fill="#424953" width="3.319" height="3.319"/>
<polygon fill="none" stroke="#424953" stroke-width="3" points="138,80.422 138,90.381 138,87.063 138,83.742 "/>
<polygon fill="none" stroke="#424953" stroke-width="3" points="167.877,80.422 167.877,90.381 167.877,87.063 167.877,83.742 "/>
<g>
	<defs>
		<rect id="SVGID_1_" width="701.116" height="189.904"/>
	</defs>
	<clipPath id="SVGID_2_">
		<use xlink:href="#SVGID_1_"  overflow="visible"/>
	</clipPath>
	<path clip-path="url(#SVGID_2_)" fill="#E5E8EC" d="M537.558,55.169c-5.399,0-9.793-4.393-9.793-9.792
		c0-4.54,3.1-8.416,7.395-9.493c0.635-7.817,7.136-13.918,15.037-13.918c6.965,0,13.002,4.825,14.644,11.457
		c0.44-0.056,0.881-0.084,1.318-0.084c5.881,0,10.675,4.745,10.758,10.608c2.357,0.717,4.041,2.892,4.041,5.482
		c0,2.97-2.267,5.422-5.162,5.712l-0.014,0.028H537.558z"/>
	<path clip-path="url(#SVGID_2_)" fill="#484F59" d="M550.196,23.466c6.875,0,12.551,5.104,13.458,11.726
		c0.797-0.225,1.637-0.353,2.504-0.353c5.116,0,9.26,4.148,9.26,9.262c0,0.372-0.028,0.736-0.07,1.096
		c2.282,0.07,4.11,1.935,4.11,4.232c0,2.343-1.897,4.24-4.239,4.24c-0.121,0-0.239-0.008-0.357-0.017
		c-0.002,0.006-0.004,0.011-0.007,0.017h-7.473h-11.786h-18.039c-4.58,0-8.293-3.714-8.293-8.292c0-4.26,3.213-7.763,7.345-8.234
		V37.05C536.608,29.55,542.69,23.466,550.196,23.466 M550.196,20.466c-8.362,0-15.299,6.218-16.429,14.272
		c-4.413,1.566-7.504,5.772-7.504,10.639c0,6.227,5.067,11.292,11.293,11.292h18.039h11.786h7.473h1.853l0.086-0.172
		c3.237-0.72,5.665-3.616,5.665-7.068c0-2.888-1.66-5.366-4.099-6.528c-0.604-6.202-5.847-11.062-12.201-11.062
		c-0.071,0-0.145,0.001-0.215,0.003C563.734,25.187,557.42,20.466,550.196,20.466"/>
	<path clip-path="url(#SVGID_2_)" fill="#FFFFFF" d="M572.291,37.174c-1.635-1.447-3.777-2.335-6.133-2.335
		c-0.867,0-1.707,0.128-2.505,0.353c0.084,0.608,0.132,1.227,0.132,1.858c0,1.009-0.113,1.989-0.322,2.936
		c2.947,1.865,4.917,5.122,4.982,8.848c2.747-1.605,4.602-4.584,4.602-7.997C573.047,39.536,572.774,38.298,572.291,37.174"/>
	<path clip-path="url(#SVGID_2_)" fill="#FFFFFF" d="M546.342,45.895c7.504,0,13.585-6.084,13.585-13.59
		c0-2.141-0.495-4.165-1.378-5.967c-2.303-1.798-5.201-2.872-8.354-2.872c-7.505,0-13.587,6.084-13.587,13.584v0.093
		c-4.132,0.472-7.344,3.975-7.344,8.234c0,1.289,0.305,2.506,0.83,3.596c0.785,0.348,1.655,0.544,2.571,0.544
		c3.318,0,6.039-2.541,6.336-5.778C541.118,45.1,543.637,45.895,546.342,45.895"/>
	<path clip-path="url(#SVGID_2_)" fill="#FFFFFF" d="M224.371,41.738c0.381,2.015-1.958,4.892-5.222,6.428
		c-3.26,1.537-6.209,1.15-6.585-0.864c-0.376-2.015,1.961-4.894,5.224-6.43C221.05,39.336,223.998,39.725,224.371,41.738"/>
	<path clip-path="url(#SVGID_2_)" fill="none" stroke="#484F59" stroke-width="3" d="M224.371,41.738
		c0.381,2.015-1.958,4.892-5.222,6.428c-3.26,1.537-6.209,1.15-6.585-0.864c-0.376-2.015,1.961-4.894,5.224-6.43
		C221.05,39.336,223.998,39.725,224.371,41.738z"/>
	<line clip-path="url(#SVGID_2_)" fill="#FFFFFF" x1="224.41" y1="41.727" x2="224.416" y2="19.676"/>
	
		<line clip-path="url(#SVGID_2_)" fill="none" stroke="#484F59" stroke-width="3" x1="224.41" y1="41.727" x2="224.416" y2="19.676"/>
	<path clip-path="url(#SVGID_2_)" fill="#FFFFFF" d="M249.708,35.586c0.375,2.013-1.966,4.894-5.225,6.428
		c-3.262,1.538-6.21,1.149-6.585-0.866c-0.376-2.014,1.961-4.894,5.223-6.428C246.381,33.186,249.33,33.571,249.708,35.586"/>
	<path clip-path="url(#SVGID_2_)" fill="none" stroke="#484F59" stroke-width="3" d="M249.708,35.586
		c0.375,2.013-1.966,4.894-5.225,6.428c-3.262,1.538-6.21,1.149-6.585-0.866c-0.376-2.014,1.961-4.894,5.223-6.428
		C246.381,33.186,249.33,33.571,249.708,35.586z"/>
	<line clip-path="url(#SVGID_2_)" fill="#FFFFFF" x1="249.745" y1="35.571" x2="249.745" y2="13.522"/>
	
		<line clip-path="url(#SVGID_2_)" fill="none" stroke="#484F59" stroke-width="3" x1="249.745" y1="35.571" x2="249.745" y2="13.522"/>
	<polygon clip-path="url(#SVGID_2_)" fill="#FFFFFF" points="249.745,21.476 224.41,27.629 224.416,19.677 249.745,13.522 	"/>
	<polygon clip-path="url(#SVGID_2_)" fill="none" stroke="#484F59" stroke-width="3" points="249.745,21.476 224.41,27.629 
		224.416,19.677 249.745,13.522 	"/>
	<path clip-path="url(#SVGID_2_)" fill="#FFFFFF" d="M224.371,41.738c0.381,2.015-1.958,4.892-5.222,6.428
		c-3.26,1.537-6.209,1.15-6.585-0.864c-0.376-2.015,1.961-4.894,5.224-6.43C221.05,39.336,223.998,39.725,224.371,41.738"/>
	<path clip-path="url(#SVGID_2_)" fill="none" stroke="#484F59" stroke-width="3" d="M224.371,41.738
		c0.381,2.015-1.958,4.892-5.222,6.428c-3.26,1.537-6.209,1.15-6.585-0.864c-0.376-2.015,1.961-4.894,5.224-6.43
		C221.05,39.336,223.998,39.725,224.371,41.738z"/>
	<line clip-path="url(#SVGID_2_)" fill="#FFFFFF" x1="224.41" y1="41.727" x2="224.416" y2="19.676"/>
	
		<line clip-path="url(#SVGID_2_)" fill="none" stroke="#484F59" stroke-width="3" x1="224.41" y1="41.727" x2="224.416" y2="19.676"/>
	<path clip-path="url(#SVGID_2_)" fill="#FFFFFF" d="M249.708,35.586c0.375,2.013-1.966,4.894-5.225,6.428
		c-3.262,1.538-6.21,1.149-6.585-0.866c-0.376-2.014,1.961-4.894,5.223-6.428C246.381,33.186,249.33,33.571,249.708,35.586"/>
	<path clip-path="url(#SVGID_2_)" fill="none" stroke="#484F59" stroke-width="3" d="M249.708,35.586
		c0.375,2.013-1.966,4.894-5.225,6.428c-3.262,1.538-6.21,1.149-6.585-0.866c-0.376-2.014,1.961-4.894,5.223-6.428
		C246.381,33.186,249.33,33.571,249.708,35.586z"/>
	<line clip-path="url(#SVGID_2_)" fill="#FFFFFF" x1="249.745" y1="35.571" x2="249.745" y2="13.522"/>
	
		<line clip-path="url(#SVGID_2_)" fill="none" stroke="#484F59" stroke-width="3" x1="249.745" y1="35.571" x2="249.745" y2="13.522"/>
	<polygon clip-path="url(#SVGID_2_)" fill="#FFFFFF" points="249.745,21.476 224.41,27.629 224.416,19.677 249.745,13.522 	"/>
	<polygon clip-path="url(#SVGID_2_)" fill="none" stroke="#484F59" stroke-width="3" points="249.745,21.476 224.41,27.629 
		224.416,19.677 249.745,13.522 	"/>
	<path clip-path="url(#SVGID_2_)" fill="#F99F00" d="M120.953,120.267c0,1.721-1.406,3.123-3.124,3.123H63.27
		c-1.717,0-3.123-1.402-3.123-3.123V88.511c0-1.719,1.406-3.124,3.123-3.124h54.559c1.718,0,3.124,1.405,3.124,3.124V120.267z"/>
	
		<line clip-path="url(#SVGID_2_)" fill="none" stroke="#484F59" stroke-width="3" x1="64.886" y1="106.576" x2="75.793" y2="106.576"/>
	
		<line clip-path="url(#SVGID_2_)" fill="none" stroke="#484F59" stroke-width="3" x1="64.886" y1="117.293" x2="76.562" y2="117.293"/>
	
		<line clip-path="url(#SVGID_2_)" fill="none" stroke="#484F59" stroke-width="3" x1="64.886" y1="112.842" x2="88.159" y2="112.842"/>
	
		<line clip-path="url(#SVGID_2_)" fill="none" stroke="#484F59" stroke-width="3" x1="78.544" y1="106.576" x2="89.454" y2="106.576"/>
	
		<line clip-path="url(#SVGID_2_)" fill="none" stroke="#484F59" stroke-width="3" x1="92.203" y1="106.576" x2="103.113" y2="106.576"/>
	
		<line clip-path="url(#SVGID_2_)" fill="none" stroke="#484F59" stroke-width="3" x1="105.862" y1="106.576" x2="116.772" y2="106.576"/>
	<rect x="65.305" y="93.313" clip-path="url(#SVGID_2_)" fill="#EAB400" width="10.101" height="7.024"/>
	
		<rect x="65.305" y="93.313" clip-path="url(#SVGID_2_)" fill="none" stroke="#484F59" stroke-width="3" stroke-miterlimit="10" width="10.101" height="7.024"/>
	
		<line clip-path="url(#SVGID_2_)" fill="none" stroke="#606060" stroke-width="3" stroke-miterlimit="10" x1="60.077" y1="22.575" x2="78.116" y2="22.575"/>
	
		<line clip-path="url(#SVGID_2_)" fill="none" stroke="#606060" stroke-width="3" stroke-miterlimit="10" x1="50.628" y1="22.575" x2="56.642" y2="22.575"/>
	
		<line clip-path="url(#SVGID_2_)" fill="none" stroke="#606060" stroke-width="3" stroke-miterlimit="10" x1="61.858" y1="31.625" x2="60.358" y2="31.625"/>
	
		<line clip-path="url(#SVGID_2_)" fill="none" stroke="#606060" stroke-width="3" stroke-miterlimit="10" x1="57.621" y1="31.625" x2="37.094" y2="31.625"/>
	
		<line clip-path="url(#SVGID_2_)" fill="none" stroke="#606060" stroke-width="3" stroke-miterlimit="10" x1="35.726" y1="31.625" x2="34.226" y2="31.625"/>
	
		<line clip-path="url(#SVGID_2_)" fill="none" stroke="#606060" stroke-width="3" stroke-miterlimit="10" x1="683.077" y1="99.576" x2="701.116" y2="99.576"/>
	
		<line clip-path="url(#SVGID_2_)" fill="none" stroke="#606060" stroke-width="3" stroke-miterlimit="10" x1="673.628" y1="99.576" x2="679.642" y2="99.576"/>
	
		<line clip-path="url(#SVGID_2_)" fill="none" stroke="#606060" stroke-width="3" stroke-miterlimit="10" x1="684.858" y1="108.625" x2="683.358" y2="108.625"/>
	
		<line clip-path="url(#SVGID_2_)" fill="none" stroke="#606060" stroke-width="3" stroke-miterlimit="10" x1="680.621" y1="108.625" x2="660.094" y2="108.625"/>
	
		<line clip-path="url(#SVGID_2_)" fill="none" stroke="#606060" stroke-width="3" stroke-miterlimit="10" x1="658.726" y1="108.625" x2="657.226" y2="108.625"/>
	
		<circle clip-path="url(#SVGID_2_)" fill="none" stroke="#606060" stroke-width="3" stroke-miterlimit="10" cx="539.579" cy="119.37" r="3.801"/>
	
		<circle clip-path="url(#SVGID_2_)" fill="none" stroke="#606060" stroke-width="3" stroke-miterlimit="10" cx="558.428" cy="119.37" r="3.801"/>
	
		<line clip-path="url(#SVGID_2_)" fill="none" stroke="#606060" stroke-width="3" stroke-miterlimit="10" x1="543.917" y1="119.37" x2="554.628" y2="119.37"/>
	<polyline clip-path="url(#SVGID_2_)" fill="none" stroke="#606060" stroke-width="3" stroke-miterlimit="10" points="
		530.216,92.575 535.322,94.033 541.282,111.91 540.183,115.458 	"/>
	<path clip-path="url(#SVGID_2_)" fill="none" stroke="#606060" stroke-width="3" stroke-miterlimit="10" d="M563.901,110.755
		c0,0.674-0.545,1.153-1.216,1.153h-21.402l-4.136-13.213h30.2L563.901,110.755z"/>
	<polygon clip-path="url(#SVGID_2_)" fill="#FEDA1D" points="105.382,14.644 108.687,21.337 116.073,22.412 110.728,27.623 
		111.989,34.98 105.382,31.506 98.774,34.98 100.036,27.623 94.688,22.412 102.077,21.337 	"/>
	<polygon clip-path="url(#SVGID_2_)" fill="none" stroke="#484F59" stroke-width="3" points="105.382,14.644 108.687,21.337 
		116.073,22.412 110.728,27.623 111.989,34.98 105.382,31.506 98.774,34.98 100.036,27.623 94.688,22.412 102.077,21.337 	"/>
	<path clip-path="url(#SVGID_2_)" fill="none" stroke="#484F59" stroke-width="3" stroke-miterlimit="10" d="M616.563,21.031
		c-0.015-2.132-1.708-3.467-3.784-2.979c-2.039,0.478-3.686,2.537-3.729,4.631l-0.006,0.001l0.029,3.971l3.865-0.907v-0.007
		C614.964,25.209,616.579,23.126,616.563,21.031z"/>
	<path clip-path="url(#SVGID_2_)" fill="none" stroke="#484F59" stroke-width="3" stroke-miterlimit="10" d="M601.61,21.031
		c0.015-2.132,1.71-3.467,3.786-2.979c2.038,0.478,3.684,2.537,3.727,4.631l0.006,0.001l-0.027,3.971l-3.867-0.907v-0.007
		C603.21,25.209,601.596,23.126,601.61,21.031z"/>
	<rect x="589.784" y="26.813" clip-path="url(#SVGID_2_)" fill="#FEDA1D" width="38.588" height="6.949"/>
	
		<rect x="589.784" y="26.813" clip-path="url(#SVGID_2_)" fill="none" stroke="#484F59" stroke-width="3" stroke-miterlimit="10" width="38.588" height="6.949"/>
	<rect x="590.851" y="33.762" clip-path="url(#SVGID_2_)" fill="#FEDA1D" width="36.452" height="21.907"/>
	
		<rect x="590.851" y="33.762" clip-path="url(#SVGID_2_)" fill="none" stroke="#484F59" stroke-width="3" stroke-miterlimit="10" width="36.452" height="21.907"/>
	<rect x="605.787" y="26.813" clip-path="url(#SVGID_2_)" fill="#FFFFFF" width="6.582" height="6.949"/>
	
		<rect x="605.787" y="26.813" clip-path="url(#SVGID_2_)" fill="none" stroke="#484F59" stroke-width="3" stroke-miterlimit="10" width="6.582" height="6.949"/>
	<rect x="605.968" y="33.762" clip-path="url(#SVGID_2_)" fill="#FFFFFF" width="6.22" height="21.907"/>
	
		<rect x="605.968" y="33.762" clip-path="url(#SVGID_2_)" fill="none" stroke="#484F59" stroke-width="3" stroke-miterlimit="10" width="6.22" height="21.907"/>
	<path clip-path="url(#SVGID_2_)" fill="#FFC400" d="M323.942,74.315l-17.051,17.052c-5.799,5.797-5.799,15.196,0,20.989
		l0.437,0.439l0.005,31.821h39.884l-0.002-17.493l14.767-14.768c5.799-5.793,5.799-15.191,0-20.989l-17.05-17.052
		C339.135,68.521,329.738,68.521,323.942,74.315"/>
	
		<path clip-path="url(#SVGID_2_)" fill="none" stroke="#484F59" stroke-width="3" stroke-linecap="round" stroke-linejoin="round" d="
		M323.942,74.315l-17.051,17.052c-5.799,5.797-5.799,15.196,0,20.989l0.437,0.439l0.005,31.821h39.884l-0.002-17.493l14.767-14.768
		c5.799-5.793,5.799-15.191,0-20.989l-17.05-17.052C339.135,68.521,329.738,68.521,323.942,74.315z"/>
	<path clip-path="url(#SVGID_2_)" fill="#FFC400" d="M378.001,84.069c1.084,2.758-0.271,5.878-3.025,6.965l-36.784,14.508
		c-2.758,1.088-5.879-0.268-6.966-3.024c-1.086-2.76,0.267-5.881,3.024-6.969l36.784-14.508
		C373.792,79.958,376.912,81.311,378.001,84.069"/>
	
		<path clip-path="url(#SVGID_2_)" fill="none" stroke="#484F59" stroke-width="3" stroke-linecap="round" stroke-linejoin="round" d="
		M378.001,84.069c1.084,2.758-0.271,5.878-3.025,6.965l-36.784,14.508c-2.758,1.088-5.879-0.268-6.966-3.024
		c-1.086-2.76,0.267-5.881,3.024-6.969l36.784-14.508C373.792,79.958,376.912,81.311,378.001,84.069z"/>
	<path clip-path="url(#SVGID_2_)" fill="#FFC400" d="M378.425,66.87c1.086,2.759-0.271,5.879-3.029,6.968l-36.784,14.506
		c-2.757,1.088-5.88-0.271-6.967-3.025c-1.086-2.76,0.269-5.881,3.024-6.968l36.784-14.505
		C374.212,62.758,377.33,64.112,378.425,66.87"/>
	
		<path clip-path="url(#SVGID_2_)" fill="none" stroke="#484F59" stroke-width="3" stroke-linecap="round" stroke-linejoin="round" d="
		M378.425,66.87c1.086,2.759-0.271,5.879-3.029,6.968l-36.784,14.506c-2.757,1.088-5.88-0.271-6.967-3.025
		c-1.086-2.76,0.269-5.881,3.024-6.968l36.784-14.505C374.212,62.758,377.33,64.112,378.425,66.87z"/>
	<path clip-path="url(#SVGID_2_)" fill="#FFC400" d="M382.29,36.89c1.091,2.756-0.266,5.879-3.026,6.966l-36.78,14.507
		c-2.759,1.087-5.882-0.269-6.969-3.028c-1.086-2.757,0.264-5.878,3.028-6.964l36.782-14.508
		C378.083,32.775,381.204,34.13,382.29,36.89"/>
	
		<path clip-path="url(#SVGID_2_)" fill="none" stroke="#484F59" stroke-width="3" stroke-linecap="round" stroke-linejoin="round" d="
		M382.29,36.89c1.091,2.756-0.266,5.879-3.026,6.966l-36.78,14.507c-2.759,1.087-5.882-0.269-6.969-3.028
		c-1.086-2.757,0.264-5.878,3.028-6.964l36.782-14.508C378.083,32.775,381.204,34.13,382.29,36.89z"/>
	<path clip-path="url(#SVGID_2_)" fill="#FFFFFF" d="M371.471,104.868c0,3.754-3.067,6.823-6.821,6.823h-40.752
		c-3.753,0-6.823-3.069-6.823-6.823V8.321c0-3.754,3.07-6.821,6.823-6.821h40.752c3.754,0,6.821,3.067,6.821,6.821V104.868z"/>
	<path clip-path="url(#SVGID_2_)" fill="none" stroke="#484F59" stroke-width="3" stroke-miterlimit="10" d="M371.471,104.868
		c0,3.754-3.067,6.823-6.821,6.823h-40.752c-3.753,0-6.823-3.069-6.823-6.823V8.321c0-3.754,3.07-6.821,6.823-6.821h40.752
		c3.754,0,6.821,3.067,6.821,6.821V104.868z"/>
	<rect x="322.611" y="14.004" clip-path="url(#SVGID_2_)" fill="#F99F00" width="43.233" height="84.745"/>
	<path clip-path="url(#SVGID_2_)" fill="#FFC400" d="M379.114,52.21c1.091,2.757-0.266,5.88-3.026,6.966l-3.828,1.223
		c-2.755,1.089-5.878-0.27-6.965-3.027c-1.089-2.757,0.264-5.878,3.026-6.964l3.826-1.223
		C374.904,48.098,378.025,49.451,379.114,52.21"/>
	
		<path clip-path="url(#SVGID_2_)" fill="none" stroke="#484F59" stroke-width="3" stroke-linecap="round" stroke-linejoin="round" d="
		M379.114,52.21c1.091,2.757-0.266,5.88-3.026,6.966l-3.828,1.223c-2.755,1.089-5.878-0.27-6.965-3.027
		c-1.089-2.757,0.264-5.878,3.026-6.964l3.826-1.223C374.904,48.098,378.025,49.451,379.114,52.21z"/>
	<path clip-path="url(#SVGID_2_)" fill="#FFC400" d="M376.947,83.063c1.089,2.761-0.268,5.88-3.023,6.968l-3.829,1.223
		c-2.756,1.087-5.877-0.269-6.964-3.027c-1.091-2.758,0.267-5.879,3.026-6.966l3.826-1.221
		C372.74,78.951,375.861,80.307,376.947,83.063"/>
	
		<path clip-path="url(#SVGID_2_)" fill="none" stroke="#484F59" stroke-width="3" stroke-linecap="round" stroke-linejoin="round" d="
		M376.947,83.063c1.089,2.761-0.268,5.88-3.023,6.968l-3.829,1.223c-2.756,1.087-5.877-0.269-6.964-3.027
		c-1.091-2.758,0.267-5.879,3.026-6.966l3.826-1.221C372.74,78.951,375.861,80.307,376.947,83.063z"/>
	<path clip-path="url(#SVGID_2_)" fill="#FFC400" d="M378.111,66.546c1.089,2.759-0.266,5.88-3.024,6.967l-3.83,1.222
		c-2.755,1.087-5.876-0.267-6.965-3.026c-1.088-2.76,0.264-5.879,3.026-6.965l3.828-1.221
		C373.901,62.435,377.024,63.787,378.111,66.546"/>
	
		<path clip-path="url(#SVGID_2_)" fill="none" stroke="#484F59" stroke-width="3" stroke-linecap="round" stroke-linejoin="round" d="
		M378.111,66.546c1.089,2.759-0.266,5.88-3.024,6.967l-3.83,1.222c-2.755,1.087-5.876-0.267-6.965-3.026
		c-1.088-2.76,0.264-5.879,3.026-6.965l3.828-1.221C373.901,62.435,377.024,63.787,378.111,66.546z"/>
	<path clip-path="url(#SVGID_2_)" fill="#FFC400" d="M312.058,63.443l-0.065-0.041l-3.018,6.831l-3.425,7.543l0.09,0.003
		l-3.26,7.376l0.074,0.022v50.215h18.954c4.346-5.358,7.066-12.978,7.064-21.437c0.002-11.013-4.607-20.603-11.417-25.63
		l3.353-10.068l2.373,0.076c5.979,0.095,10.912-4.676,11.008-10.661l0.058-3.61c0.004-0.154-0.014-0.301-0.018-0.455l-21.698-0.33
		L312.058,63.443z"/>
	
		<path clip-path="url(#SVGID_2_)" fill="none" stroke="#484F59" stroke-width="3" stroke-linecap="round" stroke-linejoin="round" d="
		M312.058,63.443l-0.065-0.041l-3.018,6.831l-3.425,7.543l0.09,0.003l-3.26,7.376l0.074,0.022v50.215h18.954
		c4.346-5.358,7.066-12.978,7.064-21.437c0.002-11.013-4.607-20.603-11.417-25.63l3.353-10.068l2.373,0.076
		c5.979,0.095,10.912-4.676,11.008-10.661l0.058-3.61c0.004-0.154-0.014-0.301-0.018-0.455l-21.698-0.33L312.058,63.443z"/>
	
		<line clip-path="url(#SVGID_2_)" fill="none" stroke="#484F59" stroke-width="3" stroke-miterlimit="10" x1="343.917" y1="104.838" x2="347.302" y2="104.838"/>
	<rect x="299.663" y="135.586" clip-path="url(#SVGID_2_)" fill="#F1FAFC" width="55.265" height="28.162"/>
	
		<rect x="299.663" y="135.586" clip-path="url(#SVGID_2_)" fill="none" stroke="#484F59" stroke-width="3" stroke-linecap="round" stroke-linejoin="round" width="55.265" height="28.162"/>
	<polyline clip-path="url(#SVGID_2_)" fill="#E5E8EC" points="297.58,189.905 297.58,140.843 357.013,140.843 357.013,189.905 	"/>
	<polyline clip-path="url(#SVGID_2_)" fill="none" stroke="#484F59" stroke-width="3" points="297.58,189.905 297.58,140.843 
		357.013,140.843 357.013,189.905 	"/>
	<path clip-path="url(#SVGID_2_)" fill="#F1FAFC" d="M350.639,153.949c0,1.566-1.27,2.832-2.834,2.832
		c-1.559,0-2.825-1.266-2.825-2.832c0-1.56,1.266-2.827,2.825-2.827C349.369,151.122,350.639,152.389,350.639,153.949"/>
	
		<path clip-path="url(#SVGID_2_)" fill="none" stroke="#484F59" stroke-width="3" stroke-linecap="round" stroke-linejoin="round" d="
		M350.639,153.949c0,1.566-1.27,2.832-2.834,2.832c-1.559,0-2.825-1.266-2.825-2.832c0-1.56,1.266-2.827,2.825-2.827
		C349.369,151.122,350.639,152.389,350.639,153.949z"/>
	
		<line clip-path="url(#SVGID_2_)" fill="none" stroke="#606060" stroke-width="3" stroke-miterlimit="10" x1="277.138" y1="40.62" x2="298.985" y2="40.62"/>
	
		<line clip-path="url(#SVGID_2_)" fill="none" stroke="#606060" stroke-width="3" stroke-miterlimit="10" x1="285.459" y1="32.573" x2="307.308" y2="32.573"/>
	
		<line clip-path="url(#SVGID_2_)" fill="none" stroke="#606060" stroke-width="3" stroke-miterlimit="10" x1="274.018" y1="32.573" x2="281.297" y2="32.573"/>
	
		<line clip-path="url(#SVGID_2_)" fill="none" stroke="#606060" stroke-width="3" stroke-miterlimit="10" x1="265.693" y1="40.62" x2="272.975" y2="40.62"/>
	<rect x="298.862" y="21.771" clip-path="url(#SVGID_2_)" fill="#E5E8EC" width="58.27" height="33.561"/>
	
		<rect x="298.862" y="21.771" clip-path="url(#SVGID_2_)" fill="none" stroke="#484F59" stroke-width="3" stroke-miterlimit="10" width="58.27" height="33.561"/>
	<path clip-path="url(#SVGID_2_)" fill="#CDD5D7" d="M357.092,21.737h-2.858h-23.403h-2.857h-2.856h-23.405h-2.856l7.278,6.508
		l5.105,4.565c0.599,0.534,1.388,1.237,2.173,1.943l6.799,6.076l5.589,4.994c1.194,1.069,3.149,1.069,4.347,0l5.588-4.994
		l6.795-6.076c0.79-0.706,1.578-1.409,2.176-1.943l5.105-4.565L357.092,21.737z"/>
	<path clip-path="url(#SVGID_2_)" fill="#F7F8FC" d="M357.092,21.737h-2.858h-23.403h-2.857h-2.856h-23.405h-2.856l7.278,6.21
		l5.105,4.354c0.599,0.51,1.388,1.182,2.173,1.854l6.799,5.798l5.589,4.766c1.194,1.019,3.149,1.019,4.347,0l5.588-4.766
		l6.795-5.798c0.79-0.672,1.578-1.344,2.176-1.854l5.105-4.354L357.092,21.737z"/>
	
		<path clip-path="url(#SVGID_2_)" fill="none" stroke="#484F59" stroke-width="3" stroke-linejoin="round" stroke-miterlimit="10" d="
		M357.092,21.737h-2.858h-23.403h-2.857h-2.856h-23.405h-2.856l7.278,6.21l5.105,4.354c0.599,0.51,1.388,1.182,2.173,1.854
		l6.799,5.798l5.589,4.766c1.194,1.019,3.149,1.019,4.347,0l5.588-4.766l6.795-5.798c0.79-0.672,1.578-1.344,2.176-1.854
		l5.105-4.354L357.092,21.737z"/>
	
		<line clip-path="url(#SVGID_2_)" fill="none" stroke="#484F59" stroke-width="3" stroke-miterlimit="10" x1="299.082" y1="55.098" x2="318.478" y2="38.35"/>
	
		<line clip-path="url(#SVGID_2_)" fill="none" stroke="#484F59" stroke-width="3" stroke-miterlimit="10" x1="357.085" y1="55.098" x2="337.688" y2="38.35"/>
	<path clip-path="url(#SVGID_2_)" fill="#47B8EB" d="M418.402,15.325c-3.132-3.082-7.264-4.751-11.643-4.709
		c-4.383,0.037-8.493,1.788-11.569,4.931c-3.064,3.129-4.729,7.253-4.69,11.619c0.036,4.454,1.86,8.477,4.776,11.412
		c-0.01-1.239-0.024-2.667-0.039-4.726c-0.014-1.614,1.242-3.504,2.85-4.01c5.551-1.707,11.482-1.757,17.059-0.146
		c1.621,0.48,2.905,2.344,2.921,3.962c0.02,2.387,0.034,3.932,0.045,5.309c0.172-0.163,0.352-0.311,0.517-0.48
		c3.064-3.127,4.729-7.248,4.689-11.608C423.274,22.507,421.53,18.399,418.402,15.325 M406.604,28.324
		c-3.202,0.028-5.82-2.547-5.85-5.75c-0.025-3.203,2.549-5.821,5.751-5.848c3.203-0.028,5.823,2.546,5.851,5.75
		C412.383,25.678,409.809,28.298,406.604,28.324"/>
	<path clip-path="url(#SVGID_2_)" fill="#F99F00" d="M418.629,38.487c-3.085,3.149-7.194,4.899-11.582,4.938
		c-9.049,0.083-16.474-7.211-16.547-16.259c-0.038-4.367,1.627-8.491,4.69-11.619c3.076-3.143,7.188-4.894,11.569-4.931
		c4.379-0.042,8.511,1.627,11.642,4.709c3.128,3.074,4.873,7.182,4.915,11.554C423.356,31.239,421.691,35.36,418.629,38.487"/>
	<path clip-path="url(#SVGID_2_)" fill="none" stroke="#484F59" d="M418.629,38.487c-3.085,3.149-7.194,4.899-11.582,4.938
		c-9.049,0.083-16.474-7.211-16.547-16.259c-0.038-4.367,1.627-8.491,4.69-11.619c3.076-3.143,7.188-4.894,11.569-4.931
		c4.379-0.042,8.511,1.627,11.642,4.709c3.128,3.074,4.873,7.182,4.915,11.554C423.356,31.239,421.691,35.36,418.629,38.487z"/>
	<path clip-path="url(#SVGID_2_)" fill="#FFFFFF" d="M415.146,29.696c-5.576-1.611-11.508-1.562-17.059,0.146
		c-1.607,0.506-2.863,2.396-2.85,4.01c0.015,2.059,0.029,3.487,0.039,4.726c1.501,1.508,3.287,2.729,5.276,3.566l-0.062-7.348
		l0.062,7.348c1.995,0.843,4.191,1.302,6.493,1.281c2.036-0.017,4.008-0.419,5.849-1.143l-0.064-7.591l0.064,7.591
		c1.915-0.752,3.678-1.87,5.217-3.315c-0.011-1.377-0.025-2.922-0.045-5.309C418.051,32.041,416.767,30.175,415.146,29.696"/>
	<path clip-path="url(#SVGID_2_)" fill="none" stroke="#484F59" stroke-width="3" d="M415.146,29.696
		c-5.576-1.611-11.508-1.562-17.059,0.146c-1.607,0.506-2.863,2.396-2.85,4.01c0.015,2.059,0.029,3.487,0.039,4.726
		c1.501,1.508,3.287,2.729,5.276,3.566l-0.062-7.348l0.062,7.348c1.995,0.843,4.191,1.302,6.493,1.281
		c2.036-0.017,4.008-0.419,5.849-1.143l-0.064-7.591l0.064,7.591c1.915-0.752,3.678-1.87,5.217-3.315
		c-0.011-1.377-0.025-2.922-0.045-5.309C418.051,32.041,416.767,30.175,415.146,29.696z"/>
	<path clip-path="url(#SVGID_2_)" fill="#FFFFFF" d="M406.507,16.727c-3.203,0.026-5.777,2.645-5.751,5.848
		c0.027,3.203,2.646,5.778,5.849,5.75c3.204-0.027,5.779-2.647,5.752-5.848C412.328,19.272,409.71,16.699,406.507,16.727"/>
	<circle clip-path="url(#SVGID_2_)" fill="none" stroke="#484F59" stroke-width="3" cx="406.556" cy="22.526" r="5.799"/>
	<path clip-path="url(#SVGID_2_)" fill="#47B8EB" d="M667.892,62.414c-3.132-3.082-7.264-4.751-11.643-4.711
		c-4.383,0.038-8.493,1.788-11.569,4.931c-3.064,3.13-4.729,7.254-4.69,11.619c0.036,4.455,1.86,8.478,4.776,11.413
		c-0.01-1.239-0.024-2.667-0.039-4.726c-0.014-1.616,1.242-3.504,2.85-4.011c5.551-1.706,11.482-1.757,17.059-0.146
		c1.621,0.481,2.905,2.344,2.921,3.962c0.02,2.387,0.034,3.933,0.045,5.31c0.172-0.163,0.352-0.311,0.517-0.481
		c3.064-3.126,4.729-7.247,4.689-11.608C672.764,69.594,671.02,65.487,667.892,62.414 M656.094,75.412
		c-3.202,0.028-5.82-2.547-5.85-5.75c-0.025-3.203,2.549-5.821,5.752-5.849c3.202-0.027,5.822,2.547,5.85,5.751
		C661.873,72.766,659.298,75.386,656.094,75.412"/>
	<path clip-path="url(#SVGID_2_)" fill="#FEDA1D" d="M668.118,85.574c-3.085,3.15-7.194,4.9-11.582,4.938
		c-9.049,0.083-16.474-7.21-16.547-16.259c-0.038-4.366,1.627-8.49,4.69-11.619c3.076-3.143,7.188-4.893,11.569-4.931
		c4.379-0.04,8.511,1.629,11.642,4.711c3.128,3.073,4.873,7.18,4.915,11.552C672.846,78.327,671.181,82.448,668.118,85.574"/>
	<path clip-path="url(#SVGID_2_)" fill="none" stroke="#484F59" stroke-width="3" d="M668.118,85.574
		c-3.085,3.15-7.194,4.9-11.582,4.938c-9.049,0.083-16.474-7.21-16.547-16.259c-0.038-4.366,1.627-8.49,4.69-11.619
		c3.076-3.143,7.188-4.893,11.569-4.931c4.379-0.04,8.511,1.629,11.642,4.711c3.128,3.073,4.873,7.18,4.915,11.552
		C672.846,78.327,671.181,82.448,668.118,85.574z"/>
	<path clip-path="url(#SVGID_2_)" fill="#FFFFFF" d="M664.635,76.783c-5.576-1.611-11.508-1.561-17.059,0.146
		c-1.607,0.507-2.863,2.395-2.85,4.011c0.015,2.059,0.029,3.487,0.039,4.726c1.501,1.508,3.287,2.728,5.276,3.565l-0.062-7.347
		l0.062,7.347c1.995,0.843,4.191,1.302,6.493,1.281c2.036-0.017,4.008-0.418,5.849-1.143l-0.064-7.591l0.064,7.591
		c1.915-0.752,3.678-1.87,5.217-3.315c-0.011-1.376-0.025-2.922-0.045-5.309C667.539,79.127,666.256,77.263,664.635,76.783"/>
	<path clip-path="url(#SVGID_2_)" fill="none" stroke="#484F59" stroke-width="3" d="M664.635,76.783
		c-5.576-1.611-11.508-1.561-17.059,0.146c-1.607,0.507-2.863,2.395-2.85,4.011c0.015,2.059,0.029,3.487,0.039,4.726
		c1.501,1.508,3.287,2.728,5.276,3.565l-0.062-7.347l0.062,7.347c1.995,0.843,4.191,1.302,6.493,1.281
		c2.036-0.017,4.008-0.418,5.849-1.143l-0.064-7.591l0.064,7.591c1.915-0.752,3.678-1.87,5.217-3.315
		c-0.011-1.376-0.025-2.922-0.045-5.309C667.539,79.127,666.256,77.263,664.635,76.783z"/>
	<path clip-path="url(#SVGID_2_)" fill="#FFFFFF" d="M655.996,63.813c-3.203,0.027-5.777,2.646-5.751,5.849
		c0.027,3.203,2.646,5.778,5.849,5.75c3.204-0.027,5.779-2.647,5.752-5.848C661.818,66.36,659.199,63.787,655.996,63.813"/>
	<circle clip-path="url(#SVGID_2_)" fill="none" stroke="#484F59" stroke-width="3" cx="656.045" cy="69.613" r="5.8"/>
	<path clip-path="url(#SVGID_2_)" fill="#FEDA1D" d="M519.123,53.249c0,1.331-1.091,2.42-2.423,2.42h-80.3
		c-1.328,0-2.421-1.089-2.421-2.42V33.464l-3.329-3.785l3.329-4.388v-3.177c0-1.332,1.093-2.423,2.421-2.423h80.3
		c1.332,0,2.423,1.091,2.423,2.423V53.249z"/>
	<path clip-path="url(#SVGID_2_)" fill="none" stroke="#484F59" stroke-width="3" d="M519.123,53.249c0,1.331-1.091,2.42-2.423,2.42
		h-80.3c-1.328,0-2.421-1.089-2.421-2.42V33.464l-3.329-3.785l3.329-4.388v-3.177c0-1.332,1.093-2.423,2.421-2.423h80.3
		c1.332,0,2.423,1.091,2.423,2.423V53.249z"/>
	
		<line clip-path="url(#SVGID_2_)" fill="none" stroke="#484F59" stroke-width="3" x1="441.566" y1="29.557" x2="466.566" y2="29.557"/>
	
		<line clip-path="url(#SVGID_2_)" fill="none" stroke="#484F59" stroke-width="3" x1="469.566" y1="29.557" x2="494.566" y2="29.557"/>
	
		<line clip-path="url(#SVGID_2_)" fill="none" stroke="#484F59" stroke-width="3" x1="485.316" y1="29.557" x2="506.316" y2="29.557"/>
	
		<line clip-path="url(#SVGID_2_)" fill="none" stroke="#484F59" stroke-width="3" x1="441.566" y1="37.307" x2="452.316" y2="37.307"/>
	
		<line clip-path="url(#SVGID_2_)" fill="none" stroke="#484F59" stroke-width="3" x1="457.816" y1="37.307" x2="494.566" y2="37.307"/>
	
		<line clip-path="url(#SVGID_2_)" fill="none" stroke="#484F59" stroke-width="3" x1="497.566" y1="37.307" x2="510.066" y2="37.307"/>
	
		<line clip-path="url(#SVGID_2_)" fill="none" stroke="#484F59" stroke-width="3" x1="441.566" y1="45.057" x2="466.566" y2="45.057"/>
	
		<line clip-path="url(#SVGID_2_)" fill="none" stroke="#484F59" stroke-width="3" x1="469.566" y1="45.057" x2="487.316" y2="45.057"/>
	<path clip-path="url(#SVGID_2_)" fill="#FFFFFF" d="M528.442,81.674c0,1.332,1.088,2.421,2.422,2.421h95.963
		c1.33,0,2.422-1.089,2.422-2.421v-3.783l3.328-3.782l-3.328-4.388v-3.178c0-1.332-1.092-2.422-2.422-2.422h-95.963
		c-1.334,0-2.422,1.09-2.422,2.422V81.674z"/>
	<path clip-path="url(#SVGID_2_)" fill="none" stroke="#484F59" stroke-width="3" stroke-miterlimit="10" d="M528.442,81.674
		c0,1.332,1.088,2.421,2.422,2.421h95.963c1.33,0,2.422-1.089,2.422-2.421v-3.783l3.328-3.782l-3.328-4.388v-3.178
		c0-1.332-1.092-2.422-2.422-2.422h-95.963c-1.334,0-2.422,1.09-2.422,2.422V81.674z"/>
	
		<line clip-path="url(#SVGID_2_)" fill="none" stroke="#484F59" stroke-width="3" x1="535.583" y1="73.971" x2="560.583" y2="73.971"/>
	
		<line clip-path="url(#SVGID_2_)" fill="none" stroke="#484F59" stroke-width="3" x1="563.583" y1="73.971" x2="593.833" y2="73.971"/>
	
		<line clip-path="url(#SVGID_2_)" fill="none" stroke="#484F59" stroke-width="3" x1="597.167" y1="73.971" x2="620.23" y2="73.971"/>
	<rect x="434.348" y="64.701" clip-path="url(#SVGID_2_)" fill="#F6FAFB" width="84.158" height="58.874"/>
	
		<rect x="434.348" y="64.701" clip-path="url(#SVGID_2_)" fill="none" stroke="#484F59" stroke-width="3" stroke-miterlimit="10" width="84.158" height="58.874"/>
	<rect x="441.139" y="71.494" clip-path="url(#SVGID_2_)" fill="#F99F00" width="70.573" height="45.289"/>
	<path clip-path="url(#SVGID_2_)" fill="#484F59" d="M510.213,115.283H442.64V72.994h67.573V115.283z M513.213,69.994h-3H442.64h-3
		v3v42.289v3h3h67.573h3v-3V72.994V69.994z"/>
	<path clip-path="url(#SVGID_2_)" fill="#FFC400" d="M501.06,84.33c0,2.89-2.342,5.232-5.232,5.232c-2.887,0-5.23-2.342-5.23-5.232
		c0-2.888,2.344-5.233,5.23-5.233C498.718,79.097,501.06,81.442,501.06,84.33"/>
	
		<circle clip-path="url(#SVGID_2_)" fill="none" stroke="#484F59" stroke-width="3" stroke-linecap="round" cx="495.828" cy="84.33" r="5.231"/>
	<polygon clip-path="url(#SVGID_2_)" fill="#FEDA1D" points="441.14,116.784 441.14,97.243 453.953,80.185 465.065,94.978 
		472.252,85.408 484.16,101.263 511.713,101.263 511.713,116.784 	"/>
	<path clip-path="url(#SVGID_2_)" fill="#484F59" d="M453.954,82.683l11.11,14.793l7.188-9.571l9.147,12.183l2.011,2.675h26.802
		v12.521H442.64v-2.48v-10.04v-5.021L453.954,82.683z M453.954,77.688l-2.398,3.193l-11.314,15.062l-0.602,0.8v1.001v5.021v10.04
		v2.48v3h3h67.573h3v-3v-12.521v-3h-3h-25.304l-1.109-1.476l-9.149-12.183l-2.397-3.196l-2.399,3.196l-4.789,6.377l-8.713-11.601
		L453.954,77.688z"/>
	<path clip-path="url(#SVGID_2_)" fill="none" stroke="#FFFFFF" stroke-width="3" stroke-miterlimit="10" d="M14.424,72.554h-2.105
		c-3.73,0-6.764-3.035-6.764-6.766V49.859c0-3.731,3.034-6.767,6.764-6.767h2.105c3.729,0,6.764,3.036,6.764,6.767v15.929
		C21.188,69.519,18.153,72.554,14.424,72.554z"/>
	<rect x="1.5" y="52.864" clip-path="url(#SVGID_2_)" fill="#FFC400" width="23.743" height="22.24"/>
	<path clip-path="url(#SVGID_2_)" fill="#484F59" d="M23.743,73.604H3v-19.24h20.743V73.604z M26.743,51.364h-3H3H0v3v19.24v3h3
		h20.743h3v-3v-19.24V51.364z"/>
	<path clip-path="url(#SVGID_2_)" fill="#CDD5D7" d="M13.248,67.176l0.124-1.345l0.123,1.345H13.248z M12.916,61.497
		c-0.273-0.163-0.437-0.447-0.437-0.761c0-0.494,0.401-0.893,0.893-0.893c0.491,0,0.892,0.399,0.892,0.893
		c0,0.314-0.163,0.598-0.437,0.761l-0.455,0.273L12.916,61.497z"/>
	<path clip-path="url(#SVGID_2_)" fill="#FEDA1D" d="M13.372,58.343c-1.319,0-2.393,1.07-2.393,2.394c0,0.87,0.469,1.63,1.166,2.046
		l-0.542,5.893h1.769h1.768l-0.542-5.893c0.697-0.416,1.166-1.176,1.166-2.046C15.764,59.413,14.693,58.343,13.372,58.343"/>
	<rect x="31.808" y="52.864" clip-path="url(#SVGID_2_)" fill="#FFFFFF" width="90.645" height="22.24"/>
	<path clip-path="url(#SVGID_2_)" fill="#484F59" d="M120.953,73.604H33.308v-19.24h87.645V73.604z M123.953,51.364h-3H33.308h-3v3
		v19.24v3h3h87.645h3v-3v-19.24V51.364z"/>
	
		<line clip-path="url(#SVGID_2_)" fill="none" stroke="#484F59" stroke-width="3" stroke-miterlimit="10" x1="38.8" y1="63.575" x2="45.307" y2="63.575"/>
	
		<line clip-path="url(#SVGID_2_)" fill="none" stroke="#484F59" stroke-width="3" stroke-miterlimit="10" x1="49.153" y1="63.575" x2="55.661" y2="63.575"/>
	
		<line clip-path="url(#SVGID_2_)" fill="none" stroke="#484F59" stroke-width="3" stroke-miterlimit="10" x1="59.508" y1="63.575" x2="66.015" y2="63.575"/>
	
		<line clip-path="url(#SVGID_2_)" fill="none" stroke="#484F59" stroke-width="3" stroke-miterlimit="10" x1="69.861" y1="63.575" x2="76.369" y2="63.575"/>
	
		<line clip-path="url(#SVGID_2_)" fill="none" stroke="#484F59" stroke-width="3" stroke-miterlimit="10" x1="80.217" y1="63.575" x2="86.724" y2="63.575"/>
	
		<line clip-path="url(#SVGID_2_)" fill="none" stroke="#484F59" stroke-width="3" stroke-miterlimit="10" x1="90.57" y1="63.575" x2="97.077" y2="63.575"/>
	
		<line clip-path="url(#SVGID_2_)" fill="none" stroke="#484F59" stroke-width="3" stroke-miterlimit="10" x1="100.924" y1="63.575" x2="107.432" y2="63.575"/>
	
		<line clip-path="url(#SVGID_2_)" fill="none" stroke="#484F59" stroke-width="3" stroke-miterlimit="10" x1="399.487" y1="52.872" x2="399.487" y2="54.372"/>
	
		<line clip-path="url(#SVGID_2_)" fill="none" stroke="#606060" stroke-width="3" stroke-miterlimit="10" stroke-dasharray="2.912,2.912" x1="399.487" y1="57.283" x2="399.487" y2="67.478"/>
	
		<line clip-path="url(#SVGID_2_)" fill="none" stroke="#606060" stroke-width="3" stroke-miterlimit="10" x1="399.487" y1="68.935" x2="399.487" y2="70.435"/>
	
		<line clip-path="url(#SVGID_2_)" fill="none" stroke="#606060" stroke-width="3" stroke-linecap="round" stroke-linejoin="round" x1="386.077" y1="117.576" x2="389.218" y2="117.576"/>
	
		<line clip-path="url(#SVGID_2_)" fill="none" stroke="#606060" stroke-width="3" stroke-linecap="round" stroke-linejoin="round" x1="416.937" y1="141.576" x2="420.077" y2="141.576"/>
	<path clip-path="url(#SVGID_2_)" fill="none" stroke="#606060" stroke-width="3" stroke-miterlimit="10" d="M405.346,110.914
		c0,3.256-6,3.256-6,6.511s6,3.255,6,6.511s-6,3.256-6,6.511c0,3.254,6,3.254,6,6.509c0,3.258-6,3.258-6,6.516s6,3.258,6,6.517
		s-6,3.259-6,6.52"/>
	<path clip-path="url(#SVGID_2_)" fill="none" stroke="#606060" stroke-width="3" stroke-miterlimit="10" d="M422.345,55.914
		c0,3.559-6,3.559-6,7.116c0,3.557,6,3.557,6,7.113c0,3.557-6,3.557-6,7.117c0,3.561,6,3.561,6,7.123c0,3.561-6,3.561-6,7.123"/>
	
		<line clip-path="url(#SVGID_2_)" fill="none" stroke="#606060" stroke-width="3" stroke-miterlimit="10" x1="399.487" y1="78.44" x2="399.487" y2="81.575"/>
	
		<line clip-path="url(#SVGID_2_)" fill="none" stroke="#606060" stroke-width="3" stroke-miterlimit="10" x1="399.487" y1="78.44" x2="399.487" y2="81.575"/>
	
		<line clip-path="url(#SVGID_2_)" fill="none" stroke="#606060" stroke-width="3" stroke-miterlimit="10" x1="389.589" y1="84.154" x2="392.306" y2="85.721"/>
	
		<line clip-path="url(#SVGID_2_)" fill="none" stroke="#606060" stroke-width="3" stroke-miterlimit="10" x1="389.589" y1="95.582" x2="392.306" y2="94.014"/>
	
		<line clip-path="url(#SVGID_2_)" fill="none" stroke="#606060" stroke-width="3" stroke-miterlimit="10" x1="399.487" y1="101.296" x2="399.487" y2="98.158"/>
	
		<line clip-path="url(#SVGID_2_)" fill="none" stroke="#606060" stroke-width="3" stroke-miterlimit="10" x1="409.384" y1="95.582" x2="406.667" y2="94.015"/>
	
		<line clip-path="url(#SVGID_2_)" fill="none" stroke="#606060" stroke-width="3" stroke-miterlimit="10" x1="409.384" y1="84.154" x2="406.667" y2="85.724"/>
	
		<line clip-path="url(#SVGID_2_)" fill="none" stroke="#606060" stroke-width="3" stroke-miterlimit="10" x1="588.231" y1="100.031" x2="627.038" y2="100.031"/>
	
		<line clip-path="url(#SVGID_2_)" fill="none" stroke="#606060" stroke-width="3" stroke-miterlimit="10" x1="588.231" y1="106.431" x2="618.676" y2="106.431"/>
	<polyline clip-path="url(#SVGID_2_)" fill="none" stroke="#606060" stroke-width="3" stroke-miterlimit="10" points="
		584.845,97.967 579.817,104.268 577.511,102.135 	"/>
	
		<line clip-path="url(#SVGID_2_)" fill="none" stroke="#606060" stroke-width="3" stroke-miterlimit="10" x1="588.231" y1="121.031" x2="627.038" y2="121.031"/>
	
		<line clip-path="url(#SVGID_2_)" fill="none" stroke="#606060" stroke-width="3" stroke-miterlimit="10" x1="588.231" y1="127.431" x2="618.676" y2="127.431"/>
	<polyline clip-path="url(#SVGID_2_)" fill="none" stroke="#606060" stroke-width="3" stroke-miterlimit="10" points="
		584.845,118.967 579.817,125.268 577.511,123.135 	"/>
</g>
</svg>
