<?xml version="1.0" encoding="utf-8"?>
<!-- Generator: Adobe Illustrator 16.0.0, SVG Export Plug-In . SVG Version: 6.00 Build 0)  -->
<!DOCTYPE svg PUBLIC "-//W3C//DTD SVG 1.1//EN" "http://www.w3.org/Graphics/SVG/1.1/DTD/svg11.dtd">
<svg version="1.1" id="Layer_1" xmlns="http://www.w3.org/2000/svg" xmlns:xlink="http://www.w3.org/1999/xlink" x="0px" y="0px"
	 width="157.536px" height="155px" viewBox="0 0 157.536 155" enable-background="new 0 0 157.536 155" xml:space="preserve">
<g>
	<defs>
		<rect id="SVGID_1_" width="157.536" height="155"/>
	</defs>
	<clipPath id="SVGID_2_">
		<use xlink:href="#SVGID_1_"  overflow="visible"/>
	</clipPath>
	<path clip-path="url(#SVGID_2_)" fill="none" stroke="#000000" stroke-width="3" stroke-miterlimit="10" d="M147.527,107.083
		C135.99,134.36,108.98,153.5,77.5,153.5c-41.974,0-76-34.026-76-76c0-41.974,34.026-76,76-76c35.615,0,65.507,24.498,73.748,57.562
		"/>
	<polygon clip-path="url(#SVGID_2_)" points="152.224,61.071 157.535,39.669 134.088,48.527 	"/>
	
		<line clip-path="url(#SVGID_2_)" fill="none" stroke="#000000" stroke-width="3" stroke-miterlimit="10" x1="78" y1="7" x2="78" y2="21"/>
	
		<line clip-path="url(#SVGID_2_)" fill="none" stroke="#000000" stroke-width="3" stroke-miterlimit="10" x1="21" y1="78.5" x2="7" y2="78.5"/>
	
		<line clip-path="url(#SVGID_2_)" fill="none" stroke="#000000" stroke-width="3" stroke-miterlimit="10" x1="149" y1="78.5" x2="135" y2="78.5"/>
	
		<line clip-path="url(#SVGID_2_)" fill="none" stroke="#000000" stroke-width="3" stroke-miterlimit="10" x1="78.5" y1="134" x2="78.5" y2="148"/>
	
		<line clip-path="url(#SVGID_2_)" fill="none" stroke="#000000" stroke-width="3" stroke-miterlimit="10" x1="35" y1="37" x2="77.5" y2="79.5"/>
	
		<line clip-path="url(#SVGID_2_)" fill="none" stroke="#000000" stroke-width="3" stroke-miterlimit="10" x1="106.75" y1="48.75" x2="76" y2="79.5"/>
	<path clip-path="url(#SVGID_2_)" d="M84,77.25c0,3.728-3.022,6.75-6.75,6.75c-3.728,0-6.75-3.022-6.75-6.75
		c0-3.728,3.022-6.75,6.75-6.75C80.978,70.5,84,73.522,84,77.25"/>
</g>
</svg>
